<?xml version="1.0" encoding="UTF-8"?>
<svg id="Layer_1" xmlns="http://www.w3.org/2000/svg" version="1.1" viewBox="0 0 427.58 136.34">
  <!-- Generator: Adobe Illustrator 30.2.1, SVG Export Plug-In . SVG Version: 2.1.1 Build 1)  -->
  <defs>
    <style>
      .st0 {
        fill: #b5f476;
      }
    </style>
  </defs>
  <path d="M223.35,84.03l.27-32.68,13.69-13h34.94l13.96,13v22.78h-46.64v4.3l5.85,5.85h40.45l-.32,13.71h-48.24l-13.96-13.96ZM269.99,62.21v-4.89l-5.85-5.85h-18.73l-5.85,5.85v4.89h30.42Z"/>
  <path d="M355,84.25l39.88-32.78h-38.58v-13.12h61.78v12.61l-41.9,33.91h41.31v13.12h-62.49v-13.74Z"/>
  <polygon points="196.92 38.35 178.77 38.35 163.97 38.35 160.63 38.35 147.13 38.35 147.13 51.35 147.13 97.99 163.97 97.99 163.97 56.95 163.97 56.95 163.97 52.05 180.8 52.05 180.8 52.06 188.49 52.06 193.58 56.95 193.58 97.99 210.41 97.99 210.41 51.35 196.92 38.35"/>
  <rect class="st0" x="9.5" y="15.36" width="105.62" height="105.62"/>
  <path d="M61.91,25.88s.06.01.08.02v.04s.04.01.06.02v.04s.05.03.08.04v.04s.04.01.06.02v.04s.04.01.06.02t.08.09v.04s.04.01.06.02v.04s.05.03.08.04v.04s.04.01.06.02v.04s.04.01.06.02t.08.09v.04s.04.01.06.02t.08.09v.04s.04.01.06.02v.04s.05.03.08.04v.04s.04.01.06.02v.04s.04.01.06.02t.08.09v.04s.04.01.06.02v.04s.05.03.08.04v.04s.04.01.06.02v.04s.04.01.06.02t.08.09v.04s.04.01.06.02t.08.09v.04s.04.01.06.02v.04s.05.03.08.04v.04s.04.01.06.02v.04s.04.01.06.02t.08.09v.04s.04.01.06.02t.08.09v.04s.04.01.06.02v.04s.04.01.06.02t.08.09v.04s.04.01.06.02t.08.09v.04s.04.01.06.02v.04s.05.03.08.04v.04s.04.01.06.02v.04s.04.01.06.02t.08.09v.04s.04.01.06.02t.08.09v.04s.04.01.06.02v.04s.05.03.08.04v.04s.04.01.06.02v.04s.04.01.06.02t.08.09v.04s.04.01.06.02t.08.09v.04s.04.01.06.02v.04s.04.01.06.02t.08.09v.04s.04.01.06.02t.08.09v.04s.04.01.06.02v.04s.05.03.08.04v.04s.04.01.06.02v.04s.04.01.06.02t.08.09v.04s.04.01.06.02t.08.09v.04s.04.01.06.02v.04s.04.01.06.02t.08.09v.04s.04.01.06.02t.08.09v.04s.04.01.06.02v.04s.05.03.08.04v.04s.04.01.06.02v.04s.04.01.06.02t.08.09v.04s.04.01.06.02t.08.09v.04s.04.01.06.02v.04s.04.01.06.02t.08.09v.04s.04.01.06.02t.08.09v.04s.04.01.06.02t.08.09v.04s.04.01.06.02v.04s.04.01.06.02t.08.09v.04s.04.01.06.02t.08.09v.04s.04.01.06.02v.04s.05.03.08.04v.04s.04.01.06.02v.04s.04.01.06.02t.08.09v.04s.04.01.06.02t.08.09v.04s.04.01.06.02v.04s.04.01.06.02t.08.09v.04s.04.01.06.02t.08.09v.04s.04.01.06.02t.08.09v.04s.04.01.06.02v.04s.04.01.06.02t.08.09v.04s.04.01.06.02t.08.09v.04s.04.01.06.02v.04s.04.01.06.02t.08.09v.04s.04.01.06.02t.08.09v.04s.04.01.06.02t.08.09v.04s.04.01.06.02v.04s.04.01.06.02t.08.09v.04s.04.01.06.02t.08.09v.04s.04.01.06.02t.08.09v.04s.04.01.06.02v.04s.04.01.06.02t.08.09v.04s.04.01.06.02t.08.09v.04s.04.01.06.02v.04s.04.01.06.02t.08.09v.04s.04.01.06.02t.08.09v.04s.04.01.06.02t.08.09v.04s.04.01.06.02v.04s.04.01.06.02t.08.09v.04s.04.01.06.02t.08.09v.04s.04.01.06.02v.04s.04.01.06.02t.08.09v.04s.04.01.06.02t.08.09v.04s.04.01.06.02t.08.09v.04s.04.01.06.02v.04s.04.01.06.02t.08.09v.04s.04.01.06.02t.08.09v.04s.04.01.06.02t.08.09v.04s.04.01.06.02v.04s.04.01.06.02t.08.09v.04s.04.01.06.02t.08.09v.04s.04.01.06.02v.04s.04.01.06.02t.08.09v.04s.04.01.06.02t.08.09v.04s.04.01.06.02t.08.09v.04s.04.01.06.02v.04s.04.01.06.02t.08.09v.04s.04.01.06.02t.08.09v.04s.04.01.06.02c.03.03.06.07.08.11.02.01.04.03.06.04v.04s.04.01.06.02t.08.09v.04s.04.01.06.02t.08.09v.04s.04.01.06.02v.04s.04.01.06.02t.08.09v.04s.04.01.06.02t.08.09v.04s.04.01.06.02c.03.03.06.07.08.11.02.01.04.03.06.04v.04s.04.01.06.02t.08.09v.04s.04.01.06.02t.08.09v.04s.04.01.06.02v.04s.04.01.06.02t.08.09v.04s.04.01.06.02t.08.09v.04s.04.01.06.02t.08.09v.04s.04.01.06.02v.04s.04.01.06.02t.08.09v.04s.04.01.06.02t.08.09v.04s.04.01.06.02c.03.04.06.07.08.11.02.01.04.03.06.04v.04s.04.01.06.02t.08.09v.04s.04.01.06.02t.08.09v.04s.04.01.06.02v.04s.04.01.06.02t.08.09v.04s.04.01.06.02t.08.09v.04s.04.01.06.02c.03.03.06.07.08.11.02.01.04.03.06.04v.04s.04.01.06.02t.08.09v.04s.04.01.06.02t.08.09v.04s.04.01.06.02c.03.04.06.07.08.11.02.01.04.03.06.04v.04s.04.01.06.02t.08.09v.04s.04.01.06.02t.08.09v.04s.04.01.06.02v.04s.04.01.06.02t.08.09v.04s.04.01.06.02t.08.09v.04s.04.01.06.02c.03.03.06.07.08.11.02.01.04.03.06.04v.04s.04.01.06.02t.08.09v.04s.04.01.06.02t.08.09v.04s.04.01.06.02v.04s.04.01.06.02t.08.09v.04s.04.01.06.02t.08.09v.04s.04.01.06.02c.03.03.06.07.08.11.02.01.04.03.06.04v.04s.04.01.06.02t.08.09v.04s.04.01.06.02t.08.09v.04s.04.01.06.02c.03.03.06.07.08.11.02.01.04.03.06.04v.04s.04.01.06.02t.08.09v.04s.04.01.06.02t.08.09v.04s.04.01.06.02v.04s.04.01.06.02t.08.09v.04s.04.01.06.02t.08.09v.04s.04.01.06.02c.03.03.06.07.08.11.02.01.04.03.06.04v.04s.04.01.06.02t.08.09v.04s.04.01.06.02t.08.09v.04s.04.01.06.02c.03.04.06.07.08.11.02.01.04.03.06.04v.04s.04.01.06.02t.08.09v.04s.04.01.06.02c.03.04.06.07.08.11.02.01.04.03.06.04v.04s.04.01.06.02t.08.09v.04s.04.01.06.02t.08.09v.04s.04.01.06.02c.03.03.06.07.08.11.02.01.04.03.06.04v.04s.04.01.06.02t.08.09v.04s.04.01.06.02c.03.03.06.07.08.11.02.01.04.03.06.04v.04s.04.01.06.02t.08.09v.04s.04.01.06.02t.08.09v.04s.04.01.06.02c.03.04.06.07.08.11.02.01.04.03.06.04v.04s.04.01.06.02t.08.09v.04s.04.01.06.02t.08.09v.04s.04.01.06.02c.03.03.06.07.08.11.02.01.04.03.06.04v.04s.04.01.06.02t.08.09v.04s.04.01.06.02c.03.03.06.07.08.11.02.01.04.03.06.04v.04s.04.01.06.02t.08.09v.04s.04.01.06.02t.08.09v.04s.04.01.06.02c.03.03.06.07.08.11.02.01.04.03.06.04v.04s.04.01.06.02t.08.09v.04s.04.01.06.02c.03.04.06.07.08.11.04.04.08.07.12.11t.08.09v.04s.04.01.06.02t.08.09v.04s.04.01.06.02c.03.04.06.07.08.11.02.01.04.03.06.04v.04s.04.01.06.02t.08.09v.04s.04.01.06.02t.08.09v.04s.04.01.06.02c.03.03.06.07.08.11.02.01.04.03.06.04v.04s.04.01.06.02t.08.09v.04s.04.01.06.02c.03.03.06.07.08.11.02.01.04.03.06.04v.04s.04.01.06.02t.08.09v.04s.04.01.06.02t.08.09v.04s.04.01.06.02c.03.04.06.07.08.11.02.01.04.03.06.04v.04s.04.01.06.02t.08.09v.04s.04.01.06.02c.03.04.06.07.08.11.04.04.08.07.12.11t.08.09v.04s.04.01.06.02t.08.09v.04s.04.01.06.02c.03.03.06.07.08.11.02.01.04.03.06.04v.04s.04.01.06.02t.08.09v.04s.04.01.06.02t.08.09v.04s.04.01.06.02c.03.04.06.07.08.11.02.01.04.03.06.04v.04s.04.01.06.02t.08.09v.04s.04.01.06.02c.03.04.06.07.08.11.04.04.08.07.12.11t.08.09v.04s.04.01.06.02t.08.09v.04s.04.01.06.02c.03.03.06.07.08.11.02.01.04.03.06.04v.04s.04.01.06.02t.08.09v.04s.04.01.06.02c.03.04.06.07.08.11.04.04.08.07.12.11t.08.09v.04s.04.01.06.02t.08.09v.04s.04.01.06.02c.03.04.06.07.08.11.04.04.08.07.12.11t.08.09v.04s.04.01.06.02c.03.04.06.07.08.11.04.04.08.07.12.11t.08.09v.04s.04.01.06.02t.08.09v.04s.04.01.06.02c.03.04.06.07.08.11.04.04.08.07.12.11t.08.09v.04s.04.01.06.02t.08.09v.04s.04.01.06.02c.03.03.06.07.08.11.02.01.04.03.06.04v.04s.04.01.06.02t.08.09v.04s.04.01.06.02c.03.04.06.07.08.11.04.04.08.07.12.11t.08.09v.04s.04.01.06.02t.08.09v.04s.04.01.06.02c.03.04.06.07.08.11.04.04.08.07.12.11t.08.09v.04s.04.01.06.02c.03.04.06.07.08.11.04.04.08.07.12.11t.08.09v.04s.04.01.06.02t.08.09v.04s.04.01.06.02c.03.04.06.07.08.11.05.05.11.09.17.14t.02.07c-.03.07-.08.11-.13.16-.01.01-.02.02-.03.03-.04.04-.08.08-.12.11-.03.03-.06.06-.08.08-.08.08-.15.15-.23.23-.08.08-.17.16-.25.25-.2.2-.4.4-.61.59-.08.07-.15.15-.23.22-.33.33-.67.66-1,.99-.08.08-.16.16-.25.24-.01,0-.02.02-.03.03-.33.32-.66.65-.99.97-.35.34-.7.69-1.05,1.03-.19.19-.38.37-.57.56-.16.16-.32.32-.49.48-.08.08-.17.16-.25.24-.08.07-.15.15-.23.22-.03.03-.05.05-.08.08q-.2.2-.33.23c-.07,0-.14,0-.22-.02-.04,0-.08,0-.13,0-.04,0-.08,0-.12-.01-.02,0-.04,0-.07,0-.16-.02-.31-.03-.47-.05-.47-.06-.95-.11-1.43-.16q-.39-.04-.59-.07c-.25-.03-.5-.06-.75-.08q-.55-.06-.8-.09c-.18-.02-.36-.04-.53-.06-.04,0-.07,0-.11-.01-.2-.02-.39-.04-.59-.06-.02,0-.04,0-.06,0-.09,0-.19-.02-.28-.03-.18-.02-.36-.04-.53-.06-.12-.02-.25-.03-.37-.04-.16-.01-.32-.03-.48-.05-.19-.02-.39-.04-.58-.07-.21-.02-.42-.05-.63-.07-.16-.02-.33-.04-.49-.05-.12-.01-.24-.02-.36-.04-.19-.02-.37-.04-.56-.06-.1-.01-.19-.02-.29-.03t-.06,0c-.16-.02-.31-.03-.47-.05-.27-.03-.54-.06-.8-.09-.19-.02-.38-.04-.57-.06-.01,0-.03,0-.04,0-.06,0-.13-.02-.19-.02-.13-.02-.25-.02-.38-.02v.04s.05.03.08.04v.04s.04.01.06.02v.04s.05.03.08.04v.04s.04.01.06.02v.04s.04.01.06.02t.08.09v.04s.04.01.06.02v.04s.05.03.08.04v.04s.04.01.06.02v.04s.05.03.08.04v.04s.04.01.06.02v.04s.04.01.06.02v.04s.05.03.08.04v.04s.04.01.06.02v.04s.05.03.08.04v.04s.04.01.06.02v.04s.04.01.06.02t.08.09v.04s.04.01.06.02v.04s.05.03.08.04v.04s.04.01.06.02v.04s.05.03.08.04v.04s.04.01.06.02v.04s.04.01.06.02t.08.09v.04s.04.01.06.02v.04s.04.02.08.04v.04s.04.01.06.02v.04s.04.02.08.04v.04s.04.01.06.02v.04s.04.01.06.02v.04s.04.02.08.04v.04s.04.01.06.02v.04s.04.02.08.04v.04s.04.01.06.02v.04s.04.01.06.02t.08.09v.04s.04.01.06.02v.04s.04.02.08.04v.04s.04.01.06.02v.04s.04.02.08.04v.04s.04.01.06.02v.04s.04.01.06.02t.08.09v.04s.04.01.06.02v.04s.04.02.08.04v.04s.04.01.06.02v.04s.04.01.06.02t.08.09v.04s.04.01.06.02v.04s.04.02.08.04v.04s.04.01.06.02v.04s.04.02.08.04v.04s.04.01.06.02v.04s.04.01.06.02t.08.09v.04s.04.01.06.02v.04s.04.02.08.04v.04s.04.01.06.02v.04s.04.02.08.04v.04s.04.01.06.02v.04s.04.01.06.02v.04s.04.02.08.04v.04s.04.01.06.02v.04s.04.02.08.04v.04s.04.01.06.02v.04s.04.01.06.02t.08.09v.04s.04.01.06.02v.04s.04.02.08.04v.04s.04.01.06.02v.04s.04.02.08.04v.04s.04.01.06.02v.04s.04.01.06.02t.08.09v.04s.04.01.06.02v.04s.04.02.08.04v.04s.04.01.06.02v.04s.04.01.06.02t.08.09v.04s.04.01.06.02v.04s.04.02.08.04v.04s.04.01.06.02v.04s.04.02.08.04v.04s.04.01.06.02v.04s.04.01.06.02t.08.09v.04s.04.01.06.02v.04s.04.02.08.04v.04s.03.01.06.02v.04s.05.03.08.04v.04s.03.01.06.02v.04s.03.01.06.02t.08.09v.04s.03.01.06.02v.04s.05.03.08.04v.04s.03.01.06.02v.04s.03.01.06.02t.08.09v.04s.03.01.06.02v.04s.05.03.08.04v.04s.03.01.06.02v.04s.05.03.08.04v.04s.03.01.06.02v.04s.03.01.06.02t.08.09v.04s.03.01.06.02v.04s.05.03.08.04v.04s.03.01.06.02v.04s.03.01.06.02t.08.09v.04s.03.01.06.02v.04s.05.03.08.04v.04s.03.01.06.02v.04s.05.03.08.04v.04s.03.01.06.02v.04s.03.01.06.02t.08.09v.04s.03.01.06.02v.04s.05.03.08.04v.04s.03.01.06.02v.04s.03.01.06.02t.08.09v.04s.03.01.06.02t.08.09v.04s.03.01.06.02v.04s.05.03.08.04v.04s.03.01.06.02v.04s.03.01.06.02t.08.09v.04s.03.01.06.02v.04s.05.03.08.04v.04s.03.01.06.02v.04s.05.03.08.04v.04s.03.01.06.02v.04s.03.01.06.02t.08.09v.04s.03.01.06.02v.04s.05.03.08.04v.04s.03.01.06.02v.04s.03.01.06.02t.08.09v.04s.03.01.06.02t.08.09v.04s.03.01.06.02v.04s.05.03.08.04v.04s.03.01.06.02v.04s.03.01.06.02t.08.09v.04s.03.01.06.02v.04s.05.03.08.04v.04s.03.01.06.02v.04s.03.01.06.02t.08.09v.04s.03.01.06.02t.08.09v.04s.03.01.06.02v.04s.05.03.08.04v.04s.03.01.06.02v.04s.03.01.06.02t.08.09v.04s.03.01.06.02t.08.09v.04s.03.01.06.02v.04s.05.03.08.04v.04s.03.01.06.02v.04s.03.01.06.02t.08.09v.04s.03.01.06.02v.04s.05.03.08.04v.04s.03.01.06.02v.04s.03.01.06.02t.08.09v.04s.03.01.06.02t.08.09v.04s.03.01.06.02v.04s.05.03.08.04v.04s.03.01.06.02v.04s.03.01.06.02t.08.09v.04s.03.01.06.02v.04s.05.03.08.04v.04s.03.01.06.02v.04s.03.01.06.02t.08.09v.04s.03.01.06.02t.08.09v.04s.03.01.06.02v.04s.05.03.08.04v.04s.03.01.06.02v.04s.03.01.06.02t.08.09v.04s.03.01.06.02t.08.09v.04s.03.01.06.02v.04s.03.01.06.02t.08.09v.04s.03.01.06.02t.08.09v.04s.03.01.06.02v.04s.05.03.08.04v.04s.03.01.06.02v.04s.03.01.06.02t.08.09v.04s.03.01.06.02t.08.09v.04s.03.01.06.02v.04s.05.03.08.04v.04s.03.01.06.02v.04s.03.01.06.02t.08.09v.04s.03.01.06.02t.08.09v.04s.03.01.06.02v.04s.03.01.06.02t.08.09v.04s.03.01.06.02t.08.09v.04s.03.01.06.02v.04s.05.03.08.04v.04s.03.01.06.02v.04s.03.01.06.02t.08.09v.04s.03.01.06.02t.08.09v.04s.03.01.06.02v.04s.03.01.06.02t.08.09v.04s.03.01.06.02t.08.09v.04s.03.01.06.02t.08.09v.04s.03.01.06.02v.04s.03.01.06.02t.08.09v.04s.03.01.06.02t.08.09v.04s.03.01.06.02v.04s.05.03.08.04v.04s.03.01.06.02v.04s.03.01.06.02t.08.09v.04s.03.01.06.02t.08.09v.04s.03.01.06.02v.04s.03.01.06.02t.08.09v.04s.03.01.06.02t.08.09v.04s.03.01.06.02v.04s.05.03.08.04v.04s.03.01.06.02v.04s.03.01.06.02t.08.09v.04s.03.01.06.02t.08.09v.04s.03.01.06.02v.04s.03.01.06.02t.08.09v.04s.03.01.06.02t.08.09v.04s.03.01.06.02t.08.09v.04s.03.01.06.02v.04s.03.01.06.02t.08.09v.04s.03.01.06.02t.08.09v.04s.03.01.06.02v.04s.03.01.06.02t.08.09v.04s.03.01.06.02t.08.09v.04s.03.01.06.02t.08.09v.04s.03.01.06.02v.04s.03.01.06.02t.08.09v.04s.03.01.06.02t.08.09v.04s.03.01.06.02t.08.09v.04s.03.01.06.02v.04s.03.01.06.02c-.01.09-.07.14-.13.2-.01.01-.02.02-.03.03-.04.04-.08.08-.12.12-.03.03-.06.06-.08.08-.08.08-.16.15-.23.23-.08.08-.17.16-.25.25-.2.2-.4.4-.61.6-.08.07-.15.15-.23.22-.34.33-.67.66-1.01.99-.08.08-.16.16-.25.24-.01.01-.02.02-.03.03-.33.32-.66.65-.99.98-.35.34-.7.69-1.05,1.03-.19.19-.38.37-.57.56-.16.16-.32.32-.49.48-.08.08-.17.16-.25.24-.08.08-.15.15-.23.22-.03.03-.06.05-.08.08q-.2.2-.33.22c-.07,0-.13-.02-.2-.03-.04,0-.08,0-.12-.01-.21-.02-.41-.04-.62-.07-.15-.02-.29-.03-.44-.05-.12-.01-.24-.03-.36-.04-.21-.03-.42-.05-.63-.07-.21-.02-.42-.05-.63-.07-.16-.02-.33-.04-.49-.05-.12-.01-.24-.02-.36-.04-.19-.02-.37-.04-.56-.06-.1-.01-.19-.02-.29-.03t-.06,0c-.16-.02-.31-.03-.47-.05-.25-.03-.5-.06-.75-.08-.27-.03-.54-.06-.82-.09-.15-.02-.3-.03-.46-.05-.02,0-.04,0-.06,0-.1-.01-.19-.02-.29-.03-.18-.02-.37-.04-.55-.06-.12-.02-.25-.03-.37-.04-.16-.01-.32-.03-.48-.05-.36-.05-.73-.09-1.09-.12-.15-.01-.3-.03-.45-.05-.6-.08-1.21-.14-1.81-.2-.02,0-.04,0-.06,0-.09,0-.19-.02-.28-.03-.18-.02-.37-.04-.55-.06-.15-.02-.3-.03-.44-.04-.12-.01-.24-.02-.36-.04-.19-.02-.37-.04-.56-.06-.1-.01-.19-.02-.29-.03-.02,0-.04,0-.06,0-.18-.02-.36-.04-.54-.06-.15-.02-.3-.03-.46-.05-.02,0-.04,0-.06,0-.1-.01-.19-.02-.29-.03-.18-.02-.37-.04-.55-.06-.12-.02-.25-.03-.37-.04-.15-.01-.29-.03-.44-.05-.01,0-.03,0-.05,0-.02,0-.03,0-.05,0-.47-.06-.95-.11-1.43-.16-.21-.02-.43-.05-.64-.07-.18-.02-.36-.04-.53-.06-.04,0-.07,0-.11-.01-.2-.02-.39-.04-.59-.06t-.06,0c-.09,0-.19-.02-.28-.03-.18-.02-.37-.04-.55-.06-.12-.02-.25-.03-.37-.04-.14-.01-.28-.03-.42-.05-.2-.02-.4-.05-.6-.07-.04,0-.07,0-.11-.01-.2-.02-.39-.04-.59-.06t-.06,0c-.09,0-.19-.02-.28-.03-.17-.02-.35-.04-.52-.06-.16-.02-.33-.04-.49-.06-.1-.01-.19-.02-.29-.03-.02,0-.04,0-.06,0-.2-.02-.39-.04-.59-.06-.04,0-.07,0-.11-.01-.2-.02-.4-.04-.59-.07-.12-.02-.25-.03-.37-.04-.14-.01-.28-.03-.42-.05-.19-.02-.38-.04-.57-.06-.1-.01-.19-.02-.29-.03-.02,0-.04,0-.06,0-.52-.06-1.04-.11-1.56-.18-.26-.03-.52-.06-.78-.08-.13-.01-.27-.03-.4-.04-.36-.05-.73-.09-1.09-.12-.12-.01-.23-.02-.35-.04-.21-.03-.42-.05-.63-.07-.21-.02-.42-.05-.63-.07-.14-.02-.29-.03-.43-.05-.15-.01-.31-.03-.46-.05-.14-.02-.29-.04-.43-.05-.04,0-.08,0-.13-.01-.03,0-.05,0-.08,0t-.07,0c-.08,0-.16,0-.24,0,.02.02.03.03.05.05.56.58,1.13,1.15,1.69,1.73.01.01.02.02.03.04,1.22,1.24,2.43,2.48,3.65,3.72.03.03.05.06.08.08.57.58,1.13,1.16,1.7,1.74.28.29.57.58.85.87.04.04.09.09.13.13.66.68,1.32,1.35,1.98,2.03.01.01.03.03.04.04.23.23.46.47.69.7.66.67,1.32,1.35,1.98,2.02.01.01.03.03.04.04.3.3.6.61.89.91.12.12.24.24.36.37t.04.04c.42.43.85.86,1.27,1.3.43.43.85.87,1.28,1.31.06.06.12.12.18.18t.03.04c.18.19.37.37.55.56.18.18.36.37.54.55.1.1.19.2.29.29.09.09.17.18.26.27.03.03.06.06.09.1.04.04.09.09.13.13.01.01.03.03.04.04t.08.1c-.01.09-.07.13-.13.19-.01.01-.02.02-.03.03-.04.04-.07.07-.11.11-.03.03-.05.05-.08.08-.07.07-.15.15-.22.22-.08.08-.16.16-.24.24-.16.15-.31.31-.47.46-.13.12-.26.25-.38.37-.04.04-.07.07-.11.11-.02.02-.04.04-.06.05-.35.34-.69.68-1.04,1.02-.32.31-.63.62-.95.93-.32.32-.65.64-.98.95-.18.18-.37.36-.55.54-.16.15-.31.3-.47.46-.08.08-.16.16-.24.23-.07.07-.14.14-.22.21-.03.03-.05.05-.08.08-.04.04-.07.07-.11.1-.01.01-.02.02-.03.03t-.08.07c-.08,0-.12-.05-.17-.11-.02-.02-.04-.04-.05-.06-.02-.02-.04-.04-.06-.06-.02-.02-.04-.04-.06-.07-.06-.06-.12-.12-.18-.18-.06-.07-.13-.13-.19-.2-.11-.12-.23-.23-.34-.35-.17-.17-.34-.35-.51-.52-.29-.3-.58-.59-.87-.89-.29-.3-.59-.6-.88-.9-.02-.02-.04-.04-.06-.06-.09-.1-.19-.19-.28-.29-.19-.2-.39-.4-.58-.59,0,0-.02-.02-.03-.03-.48-.49-.96-.98-1.44-1.47-.17-.17-.34-.35-.51-.52-.01-.01-.02-.02-.03-.03-.49-.5-.97-1-1.46-1.49-.03-.03-.06-.07-.1-.1-.19-.2-.38-.39-.58-.59-.48-.49-.95-.98-1.43-1.46t-.03-.03c-.7-.72-1.41-1.44-2.11-2.16-.01-.01-.02-.02-.03-.03-.34-.35-.68-.7-1.03-1.05-.38-.39-.76-.77-1.14-1.16-.01-.01-.02-.02-.03-.04-1.08-1.11-2.16-2.21-3.24-3.32-.05-.05-.09-.09-.14-.14-.42-.43-.84-.86-1.26-1.29-.01-.01-.02-.02-.03-.03-.03-.03-.07-.07-.1-.1-.92-.94-1.83-1.87-2.75-2.81-.03-.03-.06-.07-.1-.1-1.05-1.07-2.1-2.15-5.82-5.96t-.06-.06c-.91-.93-1.82-1.86-2.73-2.79.04-.08.08-.13.15-.19.01-.01.02-.02.03-.03.04-.04.07-.07.11-.11.03-.03.05-.05.08-.08.07-.07.14-.14.21-.21.08-.08.15-.15.23-.23.19-.18.37-.36.56-.55.07-.07.14-.14.21-.21.31-.3.62-.6.92-.91.08-.07.15-.15.23-.22.02-.02.04-.04.06-.06.3-.3.61-.6.91-.89.31-.31.62-.61.94-.92.18-.17.35-.34.53-.52.15-.15.3-.29.45-.44.08-.07.15-.15.23-.22.07-.07.14-.14.21-.2.03-.02.05-.05.08-.07q.21-.21.33-.21s.04,0,.08.02c.02,0,.05,0,.07,0,.02,0,.05,0,.07.01.35.05.69.09,1.04.13t.07,0c.12.01.23.03.35.04q.36.04.54.07c.2.03.4.05.6.07.35.04.69.08,1.04.12.25.03.5.06.75.08.15.01.3.03.45.05.15.02.31.04.46.06.05,0,.1.01.16.02.07,0,.15.02.22.02.17.02.33.04.5.06.05,0,.1.01.15.02.15.02.3.03.45.05.2.03.41.05.61.07.33.04.65.07.98.12.26.03.52.06.79.09.15.01.31.03.46.05.17.02.34.04.51.06.03,0,.07,0,.1.01.25.03.5.06.75.09q.9.1,1.16.14c.15.02.31.04.46.05.13.01.26.03.38.05.17.02.34.04.51.06.06,0,.11.01.17.02.04,0,.07,0,.11.01t.05,0c.07,0,.14.01.21.01-6.92-7.08-13.85-14.16-20.98-21.45.04-.08.08-.13.15-.19.01-.01.02-.02.03-.03.04-.04.07-.07.11-.11.03-.03.05-.05.08-.08.07-.07.14-.14.21-.21.08-.08.15-.15.23-.23.19-.18.37-.36.56-.55.07-.07.14-.14.21-.21.31-.3.62-.6.92-.91.08-.07.15-.15.23-.22.02-.02.04-.04.06-.06.3-.3.61-.6.91-.89.31-.31.62-.61.94-.92.18-.17.35-.34.53-.52.15-.15.3-.29.45-.44.08-.07.15-.15.23-.22.07-.07.14-.14.21-.2.03-.02.05-.05.08-.07q.21-.21.33-.21s.04,0,.08.02c.02,0,.05,0,.07,0,.02,0,.05,0,.07.01.14.02.29.04.43.05.02,0,.04,0,.07,0,.04,0,.09,0,.13.01.12.01.23.03.35.04.02,0,.05,0,.07,0,.18.02.35.04.53.06t.06,0c.11.01.22.03.34.04.21.03.42.05.62.07.12.01.23.03.35.04.02,0,.05,0,.07,0,.19.02.38.04.56.07.14.02.28.03.42.05t.05,0c.09.01.18.02.27.03.15.02.3.03.45.06.2.03.41.05.62.07.12.01.23.03.35.04.02,0,.05,0,.07,0q.65.07.95.12c.15.02.31.04.46.05.13.01.26.03.39.05.15.02.31.04.46.06.05,0,.1.01.16.02.11.01.22.03.33.04.13.01.26.03.39.04.05,0,.1.01.15.02.18.02.35.04.53.07.15.02.31.04.46.06.04,0,.07,0,.11.01.07,0,.15.02.22.03.18.02.36.04.54.06.02,0,.03,0,.05,0,.24.03.47.05.71.08.21.02.42.05.62.07.23.03.46.05.69.08.17.02.33.04.5.06t.05,0c.09.01.18.02.27.03.17.02.34.04.52.06.17.02.34.04.5.06.03,0,.07,0,.1.01.27.03.53.06.8.09.33.04.67.08,1,.12.07,0,.13.02.2.02.02,0,.05,0,.07,0,.16.02.33.04.49.06.09,0,.18.02.27.03.02,0,.04,0,.07,0,.3.03.59.07.89.11.2.03.39.05.59.07.11.01.21.02.32.04.16.02.31.04.47.05.13.01.27.03.4.05.17.02.34.04.51.06.03,0,.07,0,.1.01.18.02.36.04.55.06.02,0,.04,0,.06,0,.09,0,.17.02.26.03.15.02.3.03.45.06.17.02.34.04.51.06.09,0,.18.02.27.03.02,0,.04,0,.06,0,.2.02.4.05.6.07t.05,0c.16.02.33.04.49.06.21.03.41.05.62.07.11.01.23.03.34.04.02,0,.04,0,.07,0,.19.02.37.04.56.07.14.02.28.03.42.05t.05,0c.09.01.18.02.27.03.19.02.38.04.57.07.11.01.22.03.33.04.02,0,.05,0,.07,0,.28.03.56.06.85.1.39.04.78.09,1.17.14.05,0,.09.01.14.02t.07,0c.26.03.51.06.77.09.15.02.31.03.46.06.2.03.41.05.62.07.32.04.65.07.97.11.25.03.5.06.75.09.15.02.31.03.46.06.2.03.41.05.62.07.12.01.23.03.35.04.02,0,.05,0,.07,0q.65.07.95.12c.15.02.31.04.47.05.12.01.24.03.36.04.14.02.28.03.43.05-.02-.02-.03-.03-.05-.05q-.05-.06-.05-.1s-.04-.01-.06-.02v-.04s-.04-.01-.06-.02t-.08-.09v-.04s-.04-.01-.06-.02t-.08-.09v-.04s-.04-.01-.06-.02v-.04s-.04-.01-.06-.02t-.08-.09v-.04s-.04-.01-.06-.02t-.08-.09v-.04s-.04-.01-.06-.02t-.08-.09v-.04s-.04-.01-.06-.02v-.04s-.04-.01-.06-.02t-.08-.09v-.04s-.04-.01-.06-.02t-.08-.09v-.04s-.04-.01-.06-.02c-.03-.03-.06-.07-.08-.11-.02-.01-.04-.03-.06-.04v-.04s-.04-.01-.06-.02t-.08-.09v-.04s-.04-.01-.06-.02t-.08-.09v-.04s-.04-.01-.06-.02v-.04s-.04-.01-.06-.02t-.08-.09v-.04s-.04-.01-.06-.02t-.08-.09v-.04s-.04-.01-.06-.02t-.08-.09v-.04s-.04-.01-.06-.02v-.04s-.04-.01-.06-.02t-.08-.09v-.04s-.04-.01-.06-.02t-.08-.09v-.04s-.04-.01-.06-.02v-.04s-.04-.01-.06-.02t-.08-.09v-.04s-.04-.01-.06-.02t-.08-.09v-.04s-.04-.01-.06-.02t-.08-.09v-.04s-.04-.01-.06-.02v-.04s-.04-.01-.06-.02t-.08-.09v-.04s-.04-.01-.06-.02t-.08-.09v-.04s-.04-.01-.06-.02c-.03-.04-.06-.07-.08-.11-.02-.01-.04-.03-.06-.04v-.04s-.04-.01-.06-.02t-.08-.09v-.04s-.04-.01-.06-.02t-.08-.09v-.04s-.04-.01-.06-.02v-.04s-.04-.01-.06-.02t-.08-.09v-.04s-.04-.01-.06-.02t-.08-.09v-.04s-.04-.01-.06-.02c-.03-.03-.06-.07-.08-.11-.02-.01-.04-.03-.06-.04v-.04s-.04-.01-.06-.02t-.08-.09v-.04s-.04-.01-.06-.02t-.08-.09v-.04s-.04-.01-.06-.02c-.03-.04-.06-.07-.08-.11-.02-.01-.04-.03-.06-.04v-.04s-.04-.01-.06-.02t-.08-.09v-.04s-.04-.01-.06-.02t-.08-.09v-.04s-.04-.01-.06-.02v-.04s-.04-.01-.06-.02t-.08-.09v-.04s-.04-.01-.06-.02t-.08-.09v-.04s-.04-.01-.06-.02c-.03-.03-.06-.07-.08-.11-.02-.01-.04-.03-.06-.04v-.04s-.04-.01-.06-.02t-.08-.09v-.04s-.04-.01-.06-.02t-.08-.09v-.04s-.04-.01-.06-.02v-.04s-.04-.01-.06-.02t-.08-.09v-.04s-.04-.01-.06-.02t-.08-.09v-.04s-.04-.01-.06-.02c-.03-.03-.06-.07-.08-.11-.02-.01-.04-.03-.06-.04v-.04s-.04-.01-.06-.02t-.08-.09v-.04s-.04-.01-.06-.02t-.08-.09v-.04s-.04-.01-.06-.02c-.03-.04-.06-.07-.08-.11-.02-.01-.04-.03-.06-.04v-.04s-.04-.01-.06-.02t-.08-.09v-.04s-.04-.01-.06-.02t-.08-.09v-.04s-.04-.01-.06-.02v-.04s-.04-.01-.06-.02t-.08-.09v-.04s-.04-.01-.06-.02t-.08-.09v-.04s-.04-.01-.06-.02c-.03-.03-.06-.07-.08-.11-.02-.01-.04-.03-.06-.04v-.04s-.04-.01-.06-.02t-.08-.09v-.04s-.04-.01-.06-.02t-.08-.09v-.04s-.04-.01-.06-.02c-.03-.04-.06-.07-.08-.11-.02-.01-.04-.03-.06-.04v-.04s-.04-.01-.06-.02t-.08-.09v-.04s-.04-.01-.06-.02c-.03-.04-.06-.07-.08-.11-.02-.01-.04-.03-.06-.04v-.04s-.04-.01-.06-.02t-.08-.09v-.04s-.04-.01-.06-.02t-.08-.09v-.04s-.04-.01-.06-.02c-.03-.03-.06-.07-.08-.11-.02-.01-.04-.03-.06-.04v-.04s-.04-.01-.06-.02t-.08-.09v-.04s-.04-.01-.06-.02t-.08-.09v-.04s-.04-.01-.06-.02c-.03-.04-.06-.07-.08-.11-.02-.01-.04-.03-.06-.04v-.04s-.04-.01-.06-.02t-.08-.09v-.04s-.04-.01-.06-.02c-.03-.03-.06-.07-.08-.11-.02-.01-.04-.03-.06-.04v-.04s-.04-.01-.06-.02t-.08-.09v-.04s-.04-.01-.06-.02t-.08-.09v-.04s-.04-.01-.06-.02c-.03-.03-.06-.07-.08-.11-.02-.01-.04-.03-.06-.04v-.04s-.04-.01-.06-.02t-.08-.09v-.04s-.04-.01-.06-.02c-.03-.03-.06-.07-.08-.11-.02-.01-.04-.03-.06-.04v-.04s-.04-.01-.06-.02t-.08-.09v-.04s-.04-.01-.06-.02t-.08-.09v-.04s-.04-.01-.06-.02c-.03-.03-.06-.07-.08-.11-.02-.01-.04-.03-.06-.04v-.04s-.04-.01-.06-.02t-.08-.09v-.04s-.04-.01-.06-.02c-.03-.04-.06-.07-.08-.11-.04-.04-.08-.07-.12-.11t-.08-.09v-.04s-.04-.01-.06-.02t-.08-.09v-.04s-.04-.01-.06-.02c-.03-.04-.06-.07-.08-.11-.02-.01-.04-.03-.06-.04v-.04s-.04-.01-.06-.02t-.08-.09v-.04s-.04-.01-.06-.02t-.08-.09v-.04s-.04-.01-.06-.02c-.03-.03-.06-.07-.08-.11-.02-.01-.04-.03-.06-.04v-.04s-.04-.01-.06-.02t-.08-.09v-.04s-.04-.01-.06-.02c-.03-.04-.06-.07-.08-.11-.04-.04-.08-.07-.12-.11t-.08-.09v-.04s-.04-.01-.06-.02t-.08-.09v-.04s-.04-.01-.06-.02c-.03-.04-.06-.07-.08-.11-.02-.01-.04-.03-.06-.04v-.04s-.04-.01-.06-.02t-.08-.09v-.04s-.04-.01-.06-.02c-.03-.04-.06-.07-.08-.11-.04-.04-.08-.07-.12-.11t-.08-.09v-.04s-.04-.01-.06-.02t-.08-.09v-.04s-.04-.01-.06-.02c-.03-.03-.06-.07-.08-.11-.02-.01-.04-.03-.06-.04v-.04s-.04-.01-.06-.02t-.08-.09v-.04s-.04-.01-.06-.02t-.08-.09v-.04s-.04-.01-.06-.02c-.03-.03-.06-.07-.08-.11-.02-.01-.04-.03-.06-.04v-.04s-.04-.01-.06-.02t-.08-.09v-.04s-.04-.01-.06-.02c-.03-.04-.06-.07-.08-.11-.04-.04-.08-.07-.12-.11t-.08-.09v-.04s-.04-.01-.06-.02t-.08-.09v-.04s-.04-.01-.06-.02c-.03-.03-.06-.07-.08-.11-.02-.01-.04-.03-.06-.04v-.04s-.04-.01-.06-.02t-.08-.09v-.04s-.04-.01-.06-.02c-.03-.04-.06-.07-.08-.11-.04-.04-.08-.07-.12-.11t-.08-.09v-.04s-.04-.01-.06-.02t-.08-.09v-.04s-.04-.01-.06-.02c-.03-.04-.06-.07-.08-.11-.04-.04-.08-.07-.13-.11t-.08-.09v-.04s-.04-.01-.06-.02c-.03-.04-.06-.07-.08-.11-.04-.04-.08-.07-.12-.11t-.08-.09v-.04s-.04-.01-.06-.02t-.08-.09v-.04s-.04-.01-.06-.02c-.03-.04-.06-.07-.08-.11-.04-.04-.08-.07-.13-.11t-.08-.09v-.04s-.04-.01-.06-.02t-.08-.09v-.04s-.04-.01-.06-.02c-.03-.04-.06-.07-.08-.11-.02-.01-.04-.03-.06-.04v-.04s-.04-.01-.06-.02t-.08-.09v-.04s-.04-.01-.06-.02c-.03-.04-.06-.07-.08-.11-.04-.04-.08-.07-.13-.11t-.08-.09v-.04s-.04-.01-.06-.02t-.08-.09v-.04s-.04-.01-.06-.02c-.03-.04-.06-.07-.08-.11-.04-.04-.08-.07-.13-.11t-.08-.09v-.04s-.04-.01-.06-.02c-.03-.04-.06-.07-.08-.11-.04-.04-.08-.07-.13-.11t-.08-.09v-.04s-.04-.01-.06-.02t-.08-.09v-.04s-.04-.01-.06-.02c-.03-.04-.06-.07-.08-.11-.04-.04-.08-.07-.13-.11t-.08-.09v-.04s-.04-.01-.06-.02t-.02-.08s.03-.04.04-.06h.04s.01-.04.02-.06h.04s.01-.04.02-.06t.09-.08h.04s.01-.04.02-.06t.09-.08h.04s.01-.04.02-.06t.09-.08h.04s.01-.04.02-.06h.04s.01-.04.02-.06t.09-.08h.04s.01-.04.02-.06t.09-.08h.04s.01-.04.02-.06h.04s.03-.05.04-.08h.04s.01-.04.02-.06h.04s.01-.04.02-.06t.09-.08h.04s.01-.04.02-.06t.09-.08h.04s.01-.04.02-.06h.04s.01-.04.02-.06t.09-.08h.04s.01-.04.02-.06t.09-.08h.04s.01-.04.02-.06h.04s.03-.05.04-.08h.04s.01-.04.02-.06h.04s.01-.04.02-.06t.09-.08h.04s.01-.04.02-.06t.09-.08h.04s.01-.04.02-.06h.04s.03-.05.04-.08h.04s.01-.04.02-.06h.04s.01-.04.02-.06t.09-.08h.04s.01-.04.02-.06t.09-.08h.04s.01-.04.02-.06h.04s.01-.04.02-.06t.09-.08h.04s.01-.04.02-.06t.09-.08h.04s.01-.04.02-.06h.04s.03-.05.04-.08h.04s.01-.04.02-.06h.04s.01-.04.02-.06t.09-.08h.04s.01-.04.02-.06t.09-.08h.04s.01-.04.02-.06h.04s.01-.04.02-.06t.09-.08h.04s.01-.04.02-.06t.09-.08h.04s.01-.04.02-.06h.04s.03-.05.04-.08h.04s.01-.04.02-.06h.04s.01-.04.02-.06t.09-.08h.04s.01-.04.02-.06t.09-.08h.04s.01-.04.02-.06h.04s.03-.05.04-.08h.04s.01-.04.02-.06h.04s.01-.04.02-.06t.09-.08h.04s.01-.04.02-.06h.04s.03-.05.04-.08h.04s.01-.04.02-.06h.04s.01-.04.02-.06t.09-.08h.04s.01-.04.02-.06t.09-.08h.04s.01-.04.02-.06h.04s.03-.05.04-.08h.04s.01-.04.02-.06h.04s.01-.04.02-.06t.09-.08h.04s.01-.04.02-.06t.09-.08h.04s.01-.04.02-.06h.04s.03-.05.04-.08h.04s.01-.04.02-.06h.04s.01-.04.02-.06t.09-.08h.04s.01-.04.02-.06h.04s.03-.05.04-.08h.04s.01-.04.02-.06h.04s.01-.04.02-.06ZM49.68,60.1c.08.1.16.19.25.28.01.01.02.03.04.04.04.04.08.08.12.13.03.03.06.06.09.09.08.08.16.17.25.25.09.09.18.18.27.28.18.18.35.36.53.55.14.14.27.28.41.42,1.05,1.08,2.1,2.16,3.15,3.24.01.01.02.03.04.04.56.57,1.12,1.15,1.68,1.72.24.24.47.48.71.72.04.04.08.08.12.12.61.62,1.21,1.24,1.82,1.87.01.01.03.03.04.04.21.22.42.43.63.65.6.62,1.21,1.24,1.82,1.87.01.01.02.03.04.04.27.28.55.56.82.84.11.11.22.23.33.34.01.01.02.02.04.04.39.4.78.8,1.16,1.2.39.4.78.8,1.17,1.2.05.06.11.11.16.17t.03.03c.17.17.33.34.5.52.16.17.33.34.5.51.09.09.18.18.26.27q.48.51,1.14.67c.06,0,.11,0,.17,0,.13,0,.25.02.38.04.17.02.33.04.5.05.2.02.39.04.58.07.24.03.47.06.71.08.22.02.44.04.66.07.02,0,.05,0,.07,0,.12.01.24.03.36.05.17.02.34.04.51.06.09,0,.18.02.28.03.02,0,.04,0,.06,0,.19.02.39.04.58.07.02,0,.03,0,.05,0,.23.03.46.05.7.08.14.02.28.03.43.05t.05,0c.09.01.17.02.26.03.15.02.3.04.45.06.22.03.44.05.66.08.05,0,.1.01.14.02.07,0,.14.02.21.02t.06,0s.04,0,.06,0c.02,0,.03,0,.05,0,.05,0,.09,0,.13-.02-.02,0-.04-.01-.06-.02,0-.02-.01-.04-.02-.06t-.08-.09h-.04s-.01-.04-.02-.06c-.03-.03-.07-.06-.1-.09-.01-.02-.03-.04-.04-.06h-.04s-.01-.04-.02-.06t-.08-.09h-.04s-.01-.04-.02-.06t-.08-.09h-.04s-.01-.04-.02-.06c-.03-.03-.07-.06-.1-.09-.01-.02-.03-.04-.04-.06h-.04s-.01-.04-.02-.06t-.08-.09h-.04s-.01-.04-.02-.06c-.03-.03-.07-.06-.1-.09-.04-.04-.07-.08-.1-.13t-.08-.09h-.04s-.01-.04-.02-.06t-.08-.09h-.04s-.01-.04-.02-.06c-.03-.03-.07-.06-.1-.09-.01-.02-.03-.04-.04-.06h-.04s-.01-.04-.02-.06t-.08-.09h-.04s-.01-.04-.02-.06t-.08-.09h-.04s-.01-.04-.02-.06c-.03-.03-.07-.06-.1-.09-.01-.02-.03-.04-.04-.06h-.04s-.01-.04-.02-.06t-.08-.09h-.04s-.01-.04-.02-.06c-.03-.03-.07-.06-.1-.09-.01-.02-.03-.04-.04-.06h-.04s-.01-.04-.02-.06t-.08-.09h-.04s-.01-.04-.02-.06t-.08-.09h-.04s-.01-.04-.02-.06c-.03-.03-.07-.06-.1-.09-.01-.02-.03-.04-.04-.06h-.04s-.01-.04-.02-.06t-.08-.09h-.04s-.01-.04-.02-.06t-.08-.09h-.04s-.01-.04-.02-.06c-.03-.03-.07-.06-.1-.09-.01-.02-.03-.04-.04-.06h-.04s-.01-.04-.02-.06t-.08-.09h-.04s-.01-.04-.02-.06c-.03-.03-.07-.06-.1-.09-.01-.02-.03-.04-.04-.06h-.04s-.01-.04-.02-.06t-.08-.09h-.04s-.01-.04-.02-.06t-.08-.09h-.04s-.01-.04-.02-.06c-.03-.03-.07-.06-.1-.09-.01-.02-.03-.04-.04-.06h-.04s-.01-.04-.02-.06t-.08-.09h-.04s-.01-.04-.02-.06c-.03-.03-.07-.06-.1-.09-.01-.02-.03-.04-.04-.06h-.04s-.01-.04-.02-.06t-.08-.09h-.04s-.01-.04-.02-.06t-.08-.09h-.04s-.01-.04-.02-.06c-.03-.03-.07-.06-.1-.09-.01-.02-.03-.04-.04-.06h-.04s-.01-.04-.02-.06t-.08-.09h-.04s-.01-.04-.02-.06t-.08-.09h-.04s-.01-.04-.02-.06h-.04s-.01-.04-.02-.06t-.08-.09h-.04s-.01-.04-.02-.06t-.08-.09h-.04s-.01-.04-.02-.06c-.03-.03-.07-.06-.1-.09-.01-.02-.03-.04-.04-.06h-.04s-.01-.04-.02-.06t-.08-.09h-.04s-.01-.04-.02-.06t-.08-.09h-.04s-.01-.04-.02-.06c-.03-.03-.07-.06-.1-.09-.01-.02-.03-.04-.04-.06h-.04s-.01-.04-.02-.06t-.08-.09h-.04s-.01-.04-.02-.06t-.08-.09h-.04s-.01-.04-.02-.06h-.04s-.01-.04-.02-.06t-.08-.09h-.04s-.01-.04-.02-.06t-.08-.09h-.04s-.01-.04-.02-.06c-.03-.03-.07-.06-.1-.09-.01-.02-.03-.04-.04-.06h-.04s-.01-.04-.02-.06t-.08-.09h-.04s-.01-.04-.02-.06t-.08-.09h-.04s-.01-.04-.02-.06h-.04s-.01-.04-.02-.06t-.08-.09h-.04s-.01-.04-.02-.06t-.08-.09h-.04s-.01-.04-.02-.06c-.03-.03-.07-.06-.1-.09-.01-.02-.03-.04-.04-.06h-.04s-.01-.04-.02-.06t-.08-.09h-.04s-.01-.04-.02-.06t-.08-.09h-.04s-.01-.04-.02-.06c-.03-.03-.07-.06-.1-.09-.01-.02-.03-.04-.04-.06h-.04s-.01-.04-.02-.06t-.08-.09h-.04s-.01-.04-.02-.06t-.08-.09h-.04s-.01-.04-.02-.06h-.04s-.01-.04-.02-.06t-.08-.09h-.04s-.01-.04-.02-.06t-.08-.09h-.04s-.01-.04-.02-.06c-.03-.03-.07-.06-.1-.09-.01-.02-.03-.04-.04-.06h-.04s-.01-.04-.02-.06t-.08-.09h-.04s-.01-.04-.02-.06t-.08-.09h-.04s-.01-.04-.02-.06h-.04s-.01-.04-.02-.06t-.08-.09h-.04s-.01-.04-.02-.06t-.08-.09h-.04s-.01-.04-.02-.06t-.08-.09h-.04s-.01-.04-.02-.06h-.04s-.01-.04-.02-.06t-.08-.09h-.04s-.01-.04-.02-.06t-.08-.09h-.04s-.01-.04-.02-.06c-.03-.03-.07-.06-.1-.09-.01-.02-.03-.04-.04-.06h-.04s-.01-.04-.02-.06t-.08-.09h-.04s-.01-.04-.02-.06t-.08-.09h-.04s-.01-.04-.02-.06h-.04s-.01-.04-.02-.06t-.08-.09h-.04s-.01-.04-.02-.06t-.08-.09h-.04s-.01-.04-.02-.06c-.03-.03-.07-.06-.1-.09-.01-.02-.03-.04-.04-.06h-.04s-.01-.04-.02-.06t-.08-.09h-.04s-.01-.04-.02-.06t-.08-.09h-.04s-.01-.04-.02-.06h-.04s-.01-.04-.02-.06t-.08-.09h-.04s-.01-.04-.02-.06t-.08-.09h-.04s-.01-.04-.02-.06t-.08-.09h-.04s-.01-.04-.02-.06h-.04s-.01-.04-.02-.06t-.08-.09h-.04s-.01-.04-.02-.06t-.08-.09h-.04s-.01-.04-.02-.06h-.04s-.01-.04-.02-.06t-.08-.09h-.04s-.01-.04-.02-.06t-.08-.09h-.04s-.01-.04-.02-.06t-.08-.09h-.04s-.01-.04-.02-.06h-.04s-.01-.04-.02-.06t-.08-.09h-.04s-.01-.04-.02-.06t-.08-.09h-.04s-.01-.04-.02-.06t-.08-.09h-.04s-.01-.04-.02-.06h-.04s-.01-.04-.02-.06t-.08-.09h-.04s-.01-.04-.02-.06t-.08-.09h-.04s-.01-.04-.02-.06h-.04s-.01-.04-.02-.06t-.08-.09h-.04s-.01-.04-.02-.06t-.08-.09h-.04s-.01-.04-.02-.06t-.08-.09h-.04s-.01-.04-.02-.06h-.04s-.01-.04-.02-.06t-.08-.09h-.04s-.01-.04-.02-.06t-.08-.09h-.04s-.01-.04-.02-.06h-.04s-.03-.06-.04-.09h-.04s-.01-.04-.02-.06h-.04s-.01-.04-.02-.06t-.08-.09h-.04s-.01-.04-.02-.06t-.08-.09h-.04s-.01-.04-.02-.06h-.04s-.01-.04-.02-.06t-.08-.09h-.04s-.01-.04-.02-.06t-.08-.09h-.04s-.01-.04-.02-.06t-.08-.09h-.04s-.01-.04-.02-.06h-.04s-.01-.04-.02-.06t-.08-.09h-.04s-.01-.04-.02-.06t-.08-.09h-.04s-.01-.04-.02-.06h-.04s-.01-.04-.02-.06t-.08-.09h-.04s-.01-.04-.02-.06t-.08-.09h-.04s-.01-.04-.02-.06t-.08-.09h-.04s-.01-.04-.02-.06h-.04s-.01-.04-.02-.06t-.08-.09h-.04s-.01-.04-.02-.06t-.08-.09h-.04s-.01-.04-.02-.06h-.04s-.03-.06-.04-.09h-.04s-.01-.04-.02-.06c-.07-.05-.13-.05-.22-.06-.02,0-.03,0-.05,0-.05,0-.1,0-.15-.01-.06,0-.13-.01-.19-.02t-.05,0c-.13-.01-.25-.03-.38-.04-.18-.02-.36-.04-.54-.06-.04,0-.07,0-.11-.01-.2-.02-.39-.04-.59-.06-.02,0-.04,0-.06,0-.09,0-.19-.02-.28-.03-.16-.02-.32-.03-.48-.06-.18-.02-.37-.04-.55-.06-.1-.01-.19-.02-.29-.03-.02,0-.04,0-.06,0-.16-.02-.31-.03-.47-.05-.25-.03-.5-.06-.74-.08-.36-.04-.72-.08-1.07-.12-.13-.02-.27-.03-.4-.05-.02,0-.03,0-.05,0-.21-.02-.41-.05-.62-.07-.02,0-.04,0-.06,0-.09,0-.19-.02-.28-.03-.03,0-.07,0-.1-.01-.02,0-.03,0-.05,0-.08,0-.17-.02-.25-.03-.02,0-.03,0-.05,0-.03,0-.06,0-.09-.01-.11-.01-.21-.02-.32-.02Z"/>
  <polygon points="316.07 84.4 316.07 82.61 316.07 51.47 343.79 51.47 343.79 38.35 316.07 38.35 316.07 22.25 299.14 22.25 299.14 38.35 299.14 51.47 299.14 84.03 313.1 97.99 344.11 97.99 344.11 84.4 316.07 84.4"/>
</svg>