<?xml version="1.0" encoding="UTF-8"?>
<svg id="Layer_1" xmlns="http://www.w3.org/2000/svg" version="1.1" viewBox="0 0 227.15 227.15">
  <!-- Generator: Adobe Illustrator 30.2.1, SVG Export Plug-In . SVG Version: 2.1.1 Build 1)  -->
  <defs>
    <style>
      .st0 {
        fill: #1c1c1c;
      }

      .st1 {
        fill: #b5f476;
      }
    </style>
  </defs>
  <rect class="st0" width="227.15" height="227.15"/>
  <path class="st1" d="M112.7,22.63c.06.02.12.03.18.05v.09s.09.03.13.05v.09c.06.03.12.06.18.09v.09s.09.03.13.05v.09s.09.03.13.05q.1.09.18.18v.09s.09.03.13.05v.09c.06.03.12.06.18.09v.09s.09.03.13.05v.09s.09.03.13.05q.1.09.18.18v.09s.09.03.13.05q.1.09.18.18v.09s.09.03.13.05v.09c.06.03.12.06.18.09v.09s.09.03.13.05v.09s.09.03.13.05q.1.09.18.18v.09s.09.03.13.05v.09c.06.03.12.06.18.09v.09s.09.03.13.05v.09s.09.03.13.05q.1.09.18.18v.09s.09.03.13.05q.1.09.18.18v.09s.09.03.13.05v.09c.06.03.12.06.18.09v.09s.09.03.13.05v.09s.09.03.13.05q.1.09.18.18v.09s.09.03.13.05q.1.09.18.18v.09s.09.03.13.05v.09s.09.03.13.05q.1.09.18.18v.09s.09.03.13.05q.1.09.18.18v.09s.09.03.13.05v.09c.06.03.12.06.18.09v.09s.09.03.13.05v.09s.09.03.13.05q.1.09.18.18v.09s.09.03.13.05q.1.09.18.18v.09s.09.03.13.05v.09c.06.03.12.06.18.09v.09s.09.03.13.05v.09s.09.03.13.05q.1.09.18.18v.09s.09.03.13.05q.1.09.18.18v.09s.09.03.13.05v.09s.09.03.13.05q.1.09.18.18v.09s.09.03.13.05q.1.09.18.18v.09s.09.03.13.05v.09c.06.03.12.06.18.09v.09s.09.03.13.05v.09s.09.03.13.05q.1.09.18.18v.09s.09.03.13.05q.1.09.18.18v.09s.09.03.13.05v.09s.09.03.13.05q.1.09.18.18v.09s.09.03.13.05q.1.09.18.18v.09s.09.03.13.05v.09c.06.03.12.06.18.09v.09s.09.03.13.05v.09s.09.03.13.05q.1.09.18.18v.09s.09.03.13.05q.1.09.18.18v.09s.09.03.13.05v.09s.09.03.13.05q.1.09.18.18v.09s.09.03.13.05q.1.09.18.18v.09s.09.03.13.05q.1.09.18.18v.09s.09.03.13.05v.09s.09.03.13.05q.1.09.18.18v.09s.09.03.13.05q.1.09.18.18v.09s.09.03.13.05v.09c.06.03.12.06.18.09v.09s.09.03.13.05v.09s.09.03.13.05q.1.09.18.18v.09s.09.03.13.05q.1.09.18.18v.09s.09.03.13.05v.09s.09.03.13.05q.1.09.18.18v.09s.09.03.13.05q.1.09.18.18v.09s.09.03.13.05q.1.09.18.18v.09s.09.03.13.05v.09s.09.03.13.05q.1.09.18.18v.09s.09.03.13.05q.1.09.18.18v.09s.09.03.13.05v.09s.09.03.13.05q.1.09.18.18v.09s.09.03.13.05q.1.09.18.18v.09s.09.03.13.05q.1.09.18.18v.09s.09.03.13.05v.09s.09.03.13.05q.1.09.18.18v.09s.09.03.13.05q.1.09.18.18v.09s.09.03.13.05q.1.09.18.18v.09s.09.03.13.05v.09s.09.03.13.05q.1.09.18.18v.09s.09.03.13.05q.1.09.18.18v.09s.09.03.13.05v.09s.09.03.13.05q.1.09.18.18v.09s.09.03.13.05q.1.09.18.18v.09s.09.03.13.05q.1.09.18.18v.09s.09.03.13.05v.09s.09.03.13.05q.1.09.18.18v.09s.09.03.13.05q.1.09.18.18v.09s.09.03.13.05v.09s.09.03.13.05q.1.09.18.18v.09s.09.03.13.05q.1.09.18.18v.09s.09.03.13.05q.1.09.18.18v.09s.09.03.13.05v.09s.09.03.13.05q.1.09.18.18v.09s.09.03.13.05q.1.09.18.18v.09s.09.03.13.05q.1.09.18.18v.09s.09.03.13.05v.09s.09.03.13.05q.1.09.18.18v.09s.09.03.13.05q.1.09.18.18v.09s.09.03.13.05v.09s.09.03.13.05q.1.09.18.18v.09s.09.03.13.05q.1.09.18.18v.09s.09.03.13.05q.1.09.18.18v.09s.09.03.13.05v.09s.09.03.13.05q.1.09.18.18v.09s.09.03.13.05q.1.09.18.18v.09s.09.03.13.05c.06.08.12.15.18.23.04.03.09.06.13.09v.09s.09.03.13.05q.1.09.18.18v.09s.09.03.13.05q.1.09.18.18v.09s.09.03.13.05v.09s.09.03.13.05q.1.09.18.18v.09s.09.03.13.05q.1.09.18.18v.09s.09.03.13.05c.06.08.12.15.18.23.04.03.09.06.13.09v.09s.09.03.13.05q.1.09.18.18v.09s.09.03.13.05q.1.09.18.18v.09s.09.03.13.05v.09s.09.03.13.05q.1.09.18.18v.09s.09.03.13.05q.1.09.18.18v.09s.09.03.13.05q.1.09.18.18v.09s.09.03.13.05v.09s.09.03.13.05q.1.09.18.18v.09s.09.03.13.05q.1.09.18.18v.09s.09.03.13.05c.06.08.12.15.18.23.04.03.09.06.13.09v.09s.09.03.13.05q.1.09.18.18v.09s.09.03.13.05q.1.09.18.18v.09s.09.03.13.05v.09s.09.03.13.05q.1.09.18.18v.09s.09.03.13.05q.1.09.18.18v.09s.09.03.13.05c.06.08.12.15.18.23.04.03.09.06.13.09v.09s.09.03.13.05q.1.09.18.18v.09s.09.03.13.05q.1.09.18.18v.09s.09.03.13.05c.06.08.12.15.18.23.04.03.09.06.13.09v.09s.09.03.13.05q.1.09.18.18v.09s.09.03.13.05q.1.09.18.18v.09s.09.03.13.05v.09s.09.03.13.05q.1.09.18.18v.09s.09.03.13.05q.1.09.18.18v.09s.09.03.13.05c.06.08.12.15.18.23.04.03.09.06.13.09v.09s.09.03.13.05q.1.09.18.18v.09s.09.03.13.05q.1.09.18.18v.09s.09.03.13.05v.09s.09.03.13.05q.1.09.18.18v.09s.09.03.13.05q.1.09.18.18v.09s.09.03.13.05c.06.08.12.15.18.23.04.03.09.06.13.09v.09s.09.03.13.05q.1.09.18.18v.09s.09.03.13.05q.1.09.18.18v.09s.09.03.13.05c.06.08.12.15.18.23.04.03.09.06.13.09v.09s.09.03.13.05q.1.09.18.18v.09s.09.03.13.05q.1.09.18.18v.09s.09.03.13.05v.09s.09.03.13.05q.1.09.18.18v.09s.09.03.13.05q.1.09.18.18v.09s.09.03.13.05c.06.08.12.15.18.23.04.03.09.06.13.09v.09s.09.03.13.05q.1.09.18.18v.09s.09.03.13.05q.1.09.18.18v.09s.09.03.13.05c.06.08.12.15.18.23.04.03.09.06.13.09v.09s.09.03.13.05q.1.09.18.18v.09s.09.03.13.05c.06.08.12.15.18.23.04.03.09.06.13.09v.09s.09.03.13.05q.1.09.18.18v.09s.09.03.13.05q.1.09.18.18v.09s.09.03.13.05c.06.08.12.15.18.23.04.03.09.06.13.09v.09s.09.03.13.05q.1.09.18.18v.09s.09.03.13.05c.06.08.12.15.18.23.04.03.09.06.13.09v.09s.09.03.13.05q.1.09.18.18v.09s.09.03.13.05q.1.09.18.18v.09s.09.03.13.05c.06.08.12.15.18.23.04.03.09.06.13.09v.09s.09.03.13.05q.1.09.18.18v.09s.09.03.13.05q.1.09.18.18v.09s.09.03.13.05c.06.08.12.15.18.23.04.03.09.06.13.09v.09s.09.03.13.05q.1.09.18.18v.09s.09.03.13.05c.06.08.12.15.18.23.04.03.09.06.13.09v.09s.09.03.13.05q.1.09.18.18v.09s.09.03.13.05q.1.09.18.18v.09s.09.03.13.05c.06.08.12.15.18.23.04.03.09.06.13.09v.09s.09.03.13.05q.1.09.18.18v.09s.09.03.13.05c.06.08.12.15.18.23.09.08.18.15.27.23q.11.1.18.18v.09s.09.03.13.05q.1.09.18.18v.09s.09.03.13.05c.06.08.12.15.18.23.04.03.09.06.13.09v.09s.09.03.13.05q.1.09.18.18v.09s.09.03.13.05q.1.09.18.18v.09s.09.03.13.05c.06.08.12.15.18.23.04.03.09.06.13.09v.09s.09.03.13.05q.1.09.18.18v.09s.09.03.13.05c.06.08.12.15.18.23.04.03.09.06.13.09v.09s.09.03.13.05q.1.09.18.18v.09s.09.03.13.05q.1.09.18.18v.09s.09.03.13.05c.06.08.12.15.18.23.04.03.09.06.13.09v.09s.09.03.13.05q.1.09.18.18v.09s.09.03.13.05c.06.08.12.15.18.23.09.08.18.15.27.23q.11.1.18.18v.09s.09.03.13.05q.1.09.18.18v.09s.09.03.13.05c.06.08.12.15.18.23.04.03.09.06.13.09v.09s.09.03.13.05q.1.09.18.18v.09s.09.03.13.05q.1.09.18.18v.09s.09.03.13.05c.06.08.12.15.18.23.04.03.09.06.13.09v.09s.09.03.13.05q.1.09.18.18v.09s.09.03.13.05c.06.08.12.15.18.23.09.08.18.15.27.23q.11.1.18.18v.09s.09.03.13.05q.1.09.18.18v.09s.09.03.13.05c.06.08.12.15.18.23.04.03.09.06.13.09v.09s.09.03.13.05q.1.09.18.18v.09s.09.03.13.05c.06.08.12.15.18.23.09.08.18.15.27.23q.11.1.18.18v.09s.09.03.13.05q.1.09.18.18v.09s.09.03.13.05c.06.08.12.15.18.23.09.08.18.15.27.23q.11.1.18.18v.09s.09.03.13.05c.06.08.12.15.18.23.09.08.18.15.27.23q.11.1.18.18v.09s.09.03.13.05q.1.09.18.18v.09s.09.03.13.05c.06.08.12.15.18.23.09.08.18.15.27.23q.11.1.18.18v.09s.09.03.13.05q.1.09.18.18v.09s.09.03.13.05c.06.08.12.15.18.23.04.03.09.06.13.09v.09s.09.03.13.05q.1.09.18.18v.09s.09.03.13.05c.06.08.12.15.18.23.09.08.18.15.27.23q.11.1.18.18v.09s.09.03.13.05q.1.09.18.18v.09s.09.03.13.05c.06.08.12.15.18.23.09.08.18.15.27.23q.11.1.18.18v.09s.09.03.13.05c.06.08.12.15.18.23.09.08.18.15.27.23q.11.1.18.18v.09s.09.03.13.05q.1.09.18.18v.09s.09.03.13.05c.06.08.12.15.18.23.11.11.24.2.36.3q.05.07.04.14c-.06.15-.16.24-.28.35-.02.02-.05.05-.07.07-.08.08-.17.16-.25.25-.06.06-.12.12-.18.18-.17.16-.33.33-.5.49-.18.18-.36.35-.54.53-.43.43-.87.85-1.3,1.28-.16.16-.33.32-.49.48-.72.71-1.44,1.41-2.16,2.12-.18.17-.35.35-.53.52-.02.02-.04.04-.07.06-.71.7-1.42,1.39-2.13,2.09-.75.74-1.5,1.47-2.25,2.21-.41.4-.82.8-1.23,1.21-.35.34-.7.68-1.05,1.03-.18.17-.36.35-.53.52-.16.16-.32.32-.49.48-.06.06-.12.12-.18.17q-.43.44-.72.49c-.16,0-.31-.01-.46-.04-.09,0-.18-.01-.27-.02-.09,0-.17-.02-.26-.03-.05,0-.09,0-.14-.01-.34-.03-.67-.07-1-.12-1.02-.13-2.04-.23-3.07-.34q-.84-.09-1.26-.14c-.53-.07-1.07-.12-1.61-.18q-1.18-.12-1.72-.19c-.38-.05-.76-.09-1.15-.13-.08,0-.16-.02-.24-.03-.42-.05-.85-.09-1.27-.14-.04,0-.08,0-.13-.01-.2-.02-.4-.04-.61-.06-.38-.04-.77-.08-1.15-.14-.27-.04-.54-.06-.81-.09-.35-.03-.69-.07-1.03-.11-.42-.05-.83-.1-1.25-.14-.45-.05-.9-.1-1.36-.15-.35-.04-.7-.08-1.05-.11-.26-.02-.52-.05-.77-.09-.4-.05-.8-.1-1.2-.14-.21-.02-.42-.04-.63-.07q-.06,0-.13-.01c-.34-.04-.67-.07-1-.11-.58-.07-1.15-.13-1.73-.19-.41-.04-.82-.09-1.22-.13-.03,0-.06,0-.09-.01-.14-.02-.28-.03-.41-.05-.27-.03-.54-.05-.81-.05v.09c.06.03.12.06.18.09v.09s.09.03.13.05v.09c.06.03.12.06.18.09v.09s.09.03.13.05v.09s.09.03.13.05q.1.09.18.18v.09s.09.03.13.05v.09c.06.03.12.06.18.09v.09s.09.03.13.05v.09c.06.03.12.06.18.09v.09s.09.03.13.05v.09s.09.03.13.05v.09c.06.03.12.06.18.09v.09s.09.03.13.05v.09c.06.03.12.06.18.09v.09s.09.03.13.05v.09s.09.03.13.05q.1.09.18.18v.09s.09.03.13.05v.09c.06.03.12.06.18.09v.09s.09.03.13.05v.09c.06.03.12.06.18.09v.09s.09.03.13.05v.09s.09.03.13.05q.1.09.18.18v.09s.09.03.13.05v.09q.09.05.18.09v.09s.09.03.13.05v.09q.09.05.18.09v.09s.09.03.13.05v.09s.09.03.13.05v.09q.09.05.18.09v.09s.09.03.13.05v.09q.09.05.18.09v.09s.09.03.13.05v.09s.09.03.13.05q.1.09.18.18v.09s.09.03.13.05v.09q.09.05.18.09v.09s.09.03.13.05v.09q.09.05.18.09v.09s.09.03.13.05v.09s.09.03.13.05q.1.09.18.18v.09s.09.03.13.05v.09q.09.05.18.09v.09s.09.03.13.05v.09s.09.03.13.05q.1.09.18.18v.09s.09.03.13.05v.09q.09.05.18.09v.09s.09.03.13.05v.09q.09.05.18.09v.09s.09.03.13.05v.09s.09.03.13.05q.1.09.18.18v.09s.09.03.13.05v.09q.09.05.18.09v.09s.09.03.13.05v.09q.09.05.18.09v.09s.09.03.13.05v.09s.09.03.13.05v.09q.09.05.18.09v.09s.09.03.13.05v.09q.09.05.18.09v.09s.09.03.13.05v.09s.09.03.13.05q.1.09.18.18v.09s.09.03.13.05v.09q.09.05.18.09v.09s.09.03.13.05v.09q.09.05.18.09v.09s.09.03.13.05v.09s.09.03.13.05q.1.09.18.18v.09s.09.03.13.05v.09q.09.05.18.09v.09s.09.03.13.05v.09s.09.03.13.05q.1.09.18.18v.09s.09.03.13.05v.09q.09.05.18.09v.09s.09.03.13.05v.09q.09.05.18.09v.09s.09.03.13.05v.09s.09.03.13.05q.1.09.18.18v.09s.09.03.13.05v.09q.09.05.18.09v.09q.07.02.13.05v.09c.06.03.12.06.18.09v.09q.07.02.13.05v.09q.07.02.13.05t.18.18v.09q.07.02.13.05v.09c.06.03.12.06.18.09v.09q.07.02.13.05v.09q.07.02.13.05.1.09.18.18v.09q.07.02.13.05v.09c.06.03.12.06.18.09v.09q.07.02.13.05v.09c.06.03.12.06.18.09v.09q.07.02.13.05v.09q.07.02.13.05.1.09.18.18v.09q.07.02.13.05v.09c.06.03.12.06.18.09v.09q.07.02.13.05v.09q.07.02.13.05.1.09.18.18v.09q.07.02.13.05v.09c.06.03.12.06.18.09v.09q.07.02.13.05v.09c.06.03.12.06.18.09v.09q.07.02.13.05v.09q.07.02.13.05.1.09.18.18v.09q.07.02.13.05v.09c.06.03.12.06.18.09v.09q.07.02.13.05v.09q.07.02.13.05.1.09.18.18v.09q.07.02.13.05.1.09.18.18v.09q.07.02.13.05v.09c.06.03.12.06.18.09v.09q.07.02.13.05v.09q.07.02.13.05.1.09.18.18v.09q.07.02.13.05v.09c.06.03.12.06.18.09v.09q.07.02.13.05v.09c.06.03.12.06.18.09v.09q.07.02.13.05v.09q.07.02.13.05.1.09.18.18v.09q.07.02.13.05v.09c.06.03.12.06.18.09v.09q.07.02.13.05v.09q.07.02.13.05.1.09.18.18v.09q.07.02.13.05.1.09.18.18v.09q.07.02.13.05v.09c.06.03.12.06.18.09v.09q.07.02.13.05v.09q.07.02.13.05.1.09.18.18v.09q.07.02.13.05v.09c.06.03.12.06.18.09v.09q.07.02.13.05v.09q.07.02.13.05.1.09.18.18v.09q.07.02.13.05.1.09.18.18v.09q.07.02.13.05v.09c.06.03.12.06.18.09v.09q.07.02.13.05v.09q.07.02.13.05.1.09.18.18v.09q.07.02.13.05.1.09.18.18v.09q.07.02.13.05v.09c.06.03.12.06.18.09v.09q.07.02.13.05v.09q.07.02.13.05.1.09.18.18v.09q.07.02.13.05v.09c.06.03.12.06.18.09v.09q.07.02.13.05v.09q.07.02.13.05.1.09.18.18v.09q.07.02.13.05.1.09.18.18v.09q.07.02.13.05v.09c.06.03.12.06.18.09v.09q.07.02.13.05v.09q.07.02.13.05.1.09.18.18v.09q.07.02.13.05v.09c.06.03.12.06.18.09v.09q.07.02.13.05v.09q.07.02.13.05.1.09.18.18v.09q.07.02.13.05.1.09.18.18v.09q.07.02.13.05v.09c.06.03.12.06.18.09v.09q.07.02.13.05v.09q.07.02.13.05.1.09.18.18v.09q.07.02.13.05.1.09.18.18v.09q.07.02.13.05v.09q.07.02.13.05.1.09.18.18v.09q.07.02.13.05.1.09.18.18v.09q.07.02.13.05v.09c.06.03.12.06.18.09v.09q.07.02.13.05v.09q.07.02.13.05.1.09.18.18v.09q.07.02.13.05.1.09.18.18v.09q.07.02.13.05v.09c.06.03.12.06.18.09v.09q.07.02.13.05v.09q.07.02.13.05.1.09.18.18v.09q.07.02.13.05.1.09.18.18v.09q.07.02.13.05v.09q.07.02.13.05.1.09.18.18v.09q.07.02.13.05.1.09.18.18v.09q.07.02.13.05v.09c.06.03.12.06.18.09v.09q.07.02.13.05v.09q.07.02.13.05.1.09.18.18v.09q.07.02.13.05.1.09.18.18v.09q.07.02.13.05v.09q.07.02.13.05.1.09.18.18v.09q.07.02.13.05.1.09.18.18v.09q.07.02.13.05.1.09.18.18v.09q.07.02.13.05v.09q.07.02.13.05.1.09.18.18v.09q.07.02.13.05.1.09.18.18v.09q.07.02.13.05v.09c.06.03.12.06.18.09v.09q.07.02.13.05v.09q.07.02.13.05.1.09.18.18v.09q.07.02.13.05.1.09.18.18v.09q.07.02.13.05v.09q.07.02.13.05.1.09.18.18v.09q.07.02.13.05.1.09.18.18v.09q.07.02.13.05v.09c.06.03.12.06.18.09v.09q.07.02.13.05v.09q.07.02.13.05.1.09.18.18v.09q.07.02.13.05.1.09.18.18v.09q.07.02.13.05v.09q.07.02.13.05.1.09.18.18v.09q.07.02.13.05.1.09.18.18v.09q.07.02.13.05.1.09.18.18v.09q.07.02.13.05v.09q.07.02.13.05.1.09.18.18v.09q.07.02.13.05.1.09.18.18v.09q.07.02.13.05v.09q.07.02.13.05.1.09.18.18v.09q.07.02.13.05.1.09.18.18v.09q.07.02.13.05.1.09.18.18v.09q.07.02.13.05v.09q.07.02.13.05.1.09.18.18v.09q.07.02.13.05.1.09.18.18v.09q.07.02.13.05.1.09.18.18v.09q.07.02.13.05v.09q.07.02.13.05c-.02.19-.15.3-.28.43-.02.02-.05.05-.08.07-.08.08-.17.17-.25.25-.06.06-.12.12-.18.18-.17.16-.33.33-.5.49-.18.18-.36.35-.54.53-.43.43-.87.86-1.31,1.28-.16.16-.33.32-.49.48-.72.71-1.44,1.42-2.17,2.13-.18.17-.35.35-.53.52-.02.02-.04.04-.07.07-.71.7-1.42,1.4-2.14,2.1-.75.74-1.5,1.48-2.26,2.22-.41.4-.82.81-1.23,1.21-.35.34-.7.69-1.05,1.03-.18.17-.36.35-.53.53-.16.16-.33.32-.49.48-.06.06-.12.12-.18.17q-.44.44-.71.48c-.15-.01-.28-.04-.43-.07-.09,0-.18-.02-.27-.02-.44-.04-.88-.08-1.32-.14-.31-.04-.63-.07-.95-.1-.26-.02-.52-.05-.78-.09-.45-.06-.9-.11-1.36-.15-.45-.05-.9-.1-1.36-.15-.35-.04-.7-.08-1.05-.11-.26-.02-.52-.05-.77-.09-.4-.05-.8-.1-1.2-.14-.21-.02-.42-.04-.63-.07q-.06,0-.13-.01c-.34-.04-.67-.07-1-.11-.53-.06-1.07-.12-1.6-.18-.59-.06-1.17-.13-1.75-.19-.33-.04-.65-.07-.98-.11-.04,0-.08,0-.13-.01-.21-.02-.41-.04-.62-.07-.39-.04-.79-.09-1.18-.14-.27-.04-.54-.06-.8-.09-.35-.03-.69-.07-1.03-.11-.78-.1-1.56-.19-2.34-.26-.32-.03-.64-.07-.97-.11-1.3-.16-2.6-.3-3.9-.43-.04,0-.08,0-.13-.01-.2-.02-.4-.04-.61-.06-.39-.04-.79-.09-1.18-.14-.32-.04-.64-.07-.95-.1-.26-.02-.52-.05-.77-.09-.4-.05-.8-.1-1.2-.14-.21-.02-.42-.04-.63-.07-.04,0-.08,0-.13-.01-.39-.04-.77-.09-1.16-.13-.33-.04-.65-.07-.98-.11-.04,0-.08,0-.13-.01-.21-.02-.41-.04-.62-.07-.39-.04-.79-.09-1.18-.14-.27-.04-.54-.06-.8-.09-.31-.03-.63-.06-.94-.1-.03,0-.06,0-.1-.01-.03,0-.07,0-.1-.01-1.02-.13-2.04-.23-3.07-.34-.46-.05-.92-.1-1.38-.15-.38-.05-.77-.09-1.15-.13-.08,0-.16-.02-.24-.03-.42-.05-.85-.09-1.27-.14q-.06,0-.13-.01c-.2-.02-.4-.04-.6-.06-.4-.04-.79-.09-1.18-.14-.27-.03-.53-.06-.8-.09-.3-.03-.6-.06-.9-.1-.43-.05-.86-.1-1.29-.15-.08,0-.16-.02-.24-.03-.42-.05-.85-.09-1.27-.14q-.06,0-.13-.01c-.2-.02-.4-.04-.61-.06-.38-.04-.75-.08-1.13-.13-.35-.05-.7-.08-1.05-.12-.21-.02-.41-.04-.62-.07-.04,0-.08,0-.13-.01-.42-.04-.84-.09-1.26-.14-.08,0-.15-.02-.23-.03-.43-.05-.85-.09-1.28-.15-.27-.03-.53-.06-.8-.09-.3-.03-.6-.06-.9-.1-.41-.05-.82-.1-1.23-.14-.21-.02-.42-.04-.62-.07-.04,0-.08,0-.12-.01-1.12-.12-2.24-.25-3.35-.38-.56-.07-1.12-.13-1.68-.18-.29-.03-.57-.06-.86-.09-.78-.1-1.57-.18-2.35-.26-.25-.02-.5-.05-.75-.08-.45-.06-.91-.11-1.36-.15-.45-.05-.9-.1-1.36-.15-.31-.04-.62-.07-.93-.1-.33-.03-.66-.06-.99-.11-.31-.04-.62-.08-.93-.11-.09-.01-.18-.02-.27-.03-.06,0-.11-.01-.17-.02q-.08,0-.15-.02c-.17-.01-.34-.02-.51-.02.04.04.07.07.11.11,1.21,1.24,2.42,2.47,3.63,3.71.02.02.05.05.07.08,2.61,2.67,5.23,5.34,7.84,8.01.06.06.12.12.17.18,1.22,1.24,2.44,2.49,3.65,3.73.61.63,1.22,1.25,1.83,1.88.09.09.18.19.28.28,1.42,1.45,2.84,2.9,4.26,4.36.03.03.06.06.09.09.49.5.99,1.01,1.48,1.51,1.42,1.45,2.84,2.9,4.26,4.35.03.03.06.06.09.09.64.65,1.28,1.31,1.92,1.96.26.26.52.53.77.79t.09.09c.91.93,1.82,1.86,2.73,2.79.92.94,1.83,1.87,2.75,2.81.13.13.25.26.38.39t.08.08c.39.4.79.8,1.18,1.2.39.39.77.79,1.16,1.18.21.21.41.42.62.63.19.19.38.38.56.58.07.07.14.14.2.21.09.09.18.19.27.28.03.03.05.05.08.08q.07.08.17.21c-.02.19-.14.29-.27.42-.02.02-.05.05-.07.07-.08.08-.16.16-.24.24-.06.06-.12.11-.17.17-.16.16-.32.31-.48.47-.17.17-.34.34-.52.51-.34.33-.68.66-1.01.99-.27.27-.55.54-.82.81-.08.08-.16.15-.24.23-.04.04-.08.08-.12.12-.74.73-1.49,1.46-2.23,2.18-.68.67-1.36,1.33-2.04,2-.7.68-1.4,1.37-2.1,2.05-.39.38-.79.77-1.18,1.15-.33.33-.67.65-1,.98-.17.17-.34.33-.51.5-.16.15-.31.31-.47.46-.06.06-.11.11-.17.17-.08.08-.15.15-.23.22-.02.02-.04.04-.07.07q-.06.06-.18.14c-.17-.01-.26-.11-.37-.23-.04-.04-.08-.08-.12-.12-.04-.04-.09-.09-.13-.13-.05-.05-.09-.09-.14-.14-.13-.13-.25-.26-.38-.39-.14-.14-.28-.28-.42-.42-.24-.25-.49-.5-.73-.75-.36-.37-.73-.75-1.1-1.12-.62-.64-1.24-1.27-1.87-1.91-.63-.65-1.26-1.29-1.89-1.94-.04-.04-.08-.08-.12-.12-.2-.21-.41-.41-.61-.62-.42-.43-.83-.85-1.25-1.28-.02-.02-.04-.04-.06-.06-1.03-1.06-2.07-2.11-3.1-3.17-.36-.37-.73-.74-1.09-1.12-.02-.02-.05-.05-.07-.07-1.05-1.07-2.09-2.14-3.14-3.21-.07-.07-.14-.14-.21-.21-.41-.42-.83-.84-1.24-1.27-1.03-1.05-2.05-2.1-3.08-3.15t-.07-.07c-1.51-1.55-3.03-3.1-4.54-4.64-.02-.02-.05-.05-.07-.07-.74-.75-1.47-1.5-2.21-2.26-.81-.83-1.63-1.67-2.44-2.5-.02-.02-.05-.05-.07-.08-2.32-2.38-4.65-4.75-6.97-7.13-.1-.1-.2-.2-.3-.3-.91-.93-1.81-1.85-2.72-2.78-.02-.02-.05-.05-.07-.07-.07-.07-.15-.15-.22-.22-1.97-2.02-3.94-4.03-5.91-6.05-.07-.07-.14-.14-.21-.21-2.26-2.31-4.52-4.62-12.53-12.81q-.06-.06-.12-.12c-1.96-2-3.91-4-5.87-6,.08-.17.18-.28.31-.41.02-.02.05-.05.07-.07.08-.08.15-.15.23-.23.06-.05.11-.11.17-.16.15-.15.31-.3.46-.45.17-.16.33-.32.5-.49.4-.39.8-.78,1.2-1.18.15-.15.3-.29.45-.44.66-.65,1.32-1.3,1.99-1.95.16-.16.32-.32.49-.48.04-.04.08-.08.12-.12.65-.64,1.31-1.28,1.96-1.92.67-.66,1.34-1.32,2.01-1.97.38-.37.75-.74,1.13-1.11.32-.31.64-.63.96-.94.16-.16.33-.32.49-.48.15-.15.3-.29.45-.44.05-.05.11-.11.16-.16q.45-.45.71-.45.09.01.18.03c.05,0,.1.01.15.02.05,0,.1.02.15.02.74.11,1.49.19,2.24.27q.07,0,.15.02c.25.03.5.05.75.08q.78.09,1.16.14c.43.06.86.11,1.29.15.75.08,1.49.17,2.23.27.53.07,1.07.13,1.6.18.32.03.64.07.96.11.33.05.66.08.99.12.11.01.23.03.34.04.16.02.32.04.48.05.36.04.71.08,1.07.12.11.01.22.02.33.04.32.04.65.08.97.12.44.06.88.11,1.31.15.7.08,1.41.16,2.11.25.56.08,1.13.14,1.69.19.33.03.66.07.99.11.36.05.73.09,1.09.13.07,0,.15.02.22.03.54.06,1.07.12,1.61.18q1.93.22,2.49.3c.33.05.66.08.99.11.28.03.55.06.82.1.36.05.73.09,1.09.13.12.01.24.03.36.04.08,0,.15.02.23.03q.05,0,.11.01c.15.02.3.03.45.03-14.89-15.22-29.78-30.45-45.12-46.13.09-.18.17-.27.31-.41.02-.02.05-.05.07-.07.08-.08.15-.15.23-.23.06-.05.11-.11.17-.16.15-.15.31-.3.46-.45.17-.16.33-.32.5-.49.4-.39.8-.78,1.2-1.18.15-.15.3-.29.45-.44.66-.65,1.32-1.3,1.99-1.95.16-.16.32-.32.49-.48.04-.04.08-.08.12-.12.65-.64,1.31-1.28,1.96-1.92.67-.66,1.34-1.32,2.01-1.97.38-.37.75-.74,1.13-1.11.32-.31.64-.63.96-.94.16-.16.33-.32.49-.48.15-.15.3-.29.45-.44.05-.05.11-.11.16-.16q.45-.45.71-.45.09.01.18.03c.05,0,.11.01.16.02.05,0,.1.02.16.02.31.04.62.08.92.12.05,0,.09.01.14.02.1.01.19.02.29.03.25.03.5.06.75.08.05,0,.1.01.15.02.38.04.76.09,1.14.13q.07,0,.14.02c.24.03.48.06.72.09.45.06.9.11,1.34.16.25.03.5.06.76.08.05,0,.1.01.15.02.4.04.81.09,1.21.14.3.04.6.07.9.1q.06,0,.12.01c.19.02.38.04.58.06.32.04.65.07.97.12.44.06.88.11,1.32.16.25.03.5.06.75.08.05,0,.1.01.15.02q1.39.15,2.05.25c.33.05.66.08.99.11.28.03.55.06.83.1.33.05.66.08.99.12.11.01.23.03.34.04.24.03.48.05.72.08.28.03.56.06.83.09.11.01.22.02.33.04.38.04.76.09,1.14.14.33.05.67.08,1,.12.08,0,.15.02.23.03.16.02.32.04.48.05.38.04.77.09,1.15.13.04,0,.07,0,.11.01.51.06,1.01.12,1.52.18.45.05.89.11,1.34.16.5.06.99.12,1.49.18.36.04.72.08,1.08.13q.06,0,.12.01c.19.02.38.04.57.06.37.04.74.09,1.11.13.36.05.72.09,1.08.13.07,0,.15.02.22.03.57.07,1.15.13,1.72.2.72.08,1.43.17,2.15.25.14.02.29.03.43.05.05,0,.1.01.15.02.35.04.71.08,1.06.12.19.02.38.04.57.06.05,0,.1.01.15.02.64.07,1.28.15,1.92.23.42.06.84.1,1.27.15.23.02.46.05.68.08.33.05.67.08,1,.11.29.03.58.06.87.1.37.05.73.09,1.1.13.07,0,.15.02.22.03.39.05.78.09,1.18.13.04,0,.08,0,.12.01.19.02.38.04.56.06.32.04.64.07.96.12.36.05.73.09,1.09.13.2.02.39.04.59.06.04,0,.08,0,.12.01.43.05.86.1,1.29.15q.05,0,.1.01c.35.04.7.08,1.05.13.44.06.89.11,1.33.16.25.03.49.06.74.08.05,0,.1.01.15.02.4.05.8.09,1.2.14.3.04.6.07.9.1q.06,0,.12.01c.19.02.38.04.57.06.41.05.82.1,1.22.15.24.03.48.06.72.09.05,0,.1.01.15.02.61.07,1.21.14,1.82.21.84.09,1.67.19,2.51.29.1.01.19.02.29.04q.07,0,.15.02c.55.07,1.11.13,1.66.19.33.04.66.07.99.12.44.06.88.11,1.33.16.69.08,1.39.15,2.08.24.54.07,1.07.12,1.61.18.33.04.66.07.99.12.44.06.88.11,1.32.16.25.03.5.06.75.08.05,0,.1.01.15.02q1.39.15,2.05.25c.33.05.67.08,1,.11.26.02.52.05.77.09.31.04.61.07.92.1-.04-.04-.07-.07-.11-.11q-.11-.12-.11-.21s-.09-.03-.14-.05v-.09s-.09-.03-.13-.05q-.1-.09-.18-.18v-.09s-.09-.03-.13-.05q-.1-.09-.18-.18v-.09s-.09-.03-.13-.05v-.09s-.09-.03-.13-.05q-.1-.09-.18-.18v-.09s-.09-.03-.13-.05q-.1-.09-.18-.18v-.09s-.09-.03-.13-.05q-.1-.09-.18-.18v-.09s-.09-.03-.13-.05v-.09s-.09-.03-.13-.05q-.1-.09-.18-.18v-.09s-.09-.03-.13-.05q-.1-.09-.18-.18v-.09s-.09-.03-.13-.05c-.06-.08-.12-.15-.18-.23-.04-.03-.09-.06-.13-.09v-.09s-.09-.03-.13-.05q-.1-.09-.18-.18v-.09s-.09-.03-.13-.05q-.1-.09-.18-.18v-.09s-.09-.03-.13-.05v-.09s-.09-.03-.13-.05q-.1-.09-.18-.18v-.09s-.09-.03-.13-.05q-.1-.09-.18-.18v-.09s-.09-.03-.13-.05q-.1-.09-.18-.18v-.09s-.09-.03-.13-.05v-.09s-.09-.03-.13-.05q-.1-.09-.18-.18v-.09s-.09-.03-.13-.05q-.1-.09-.18-.18v-.09s-.09-.03-.13-.05v-.09s-.09-.03-.13-.05q-.1-.09-.18-.18v-.09s-.09-.03-.13-.05q-.1-.09-.18-.18v-.09s-.09-.03-.13-.05q-.1-.09-.18-.18v-.09s-.09-.03-.13-.05v-.09s-.09-.03-.13-.05q-.1-.09-.18-.18v-.09s-.09-.03-.13-.05q-.1-.09-.18-.18v-.09s-.09-.03-.13-.05c-.06-.08-.12-.15-.18-.23-.04-.03-.09-.06-.13-.09v-.09s-.09-.03-.13-.05q-.1-.09-.18-.18v-.09s-.09-.03-.13-.05q-.1-.09-.18-.18v-.09s-.09-.03-.13-.05v-.09s-.09-.03-.13-.05q-.1-.09-.18-.18v-.09s-.09-.03-.13-.05q-.1-.09-.18-.18v-.09s-.09-.03-.13-.05c-.06-.08-.12-.15-.18-.23-.04-.03-.09-.06-.13-.09v-.09s-.09-.03-.13-.05q-.1-.09-.18-.18v-.09s-.09-.03-.13-.05q-.1-.09-.18-.18v-.09s-.09-.03-.13-.05c-.06-.08-.12-.15-.18-.23-.04-.03-.09-.06-.13-.09v-.09s-.09-.03-.13-.05q-.1-.09-.18-.18v-.09s-.09-.03-.13-.05q-.1-.09-.18-.18v-.09s-.09-.03-.13-.05v-.09s-.09-.03-.13-.05q-.1-.09-.18-.18v-.09s-.09-.03-.13-.05q-.1-.09-.18-.18v-.09s-.09-.03-.13-.05c-.06-.08-.12-.15-.18-.23-.04-.03-.09-.06-.13-.09v-.09s-.09-.03-.13-.05q-.1-.09-.18-.18v-.09s-.09-.03-.13-.05q-.1-.09-.18-.18v-.09s-.09-.03-.13-.05v-.09s-.09-.03-.13-.05q-.1-.09-.18-.18v-.09s-.09-.03-.13-.05q-.1-.09-.18-.18v-.09s-.09-.03-.13-.05c-.06-.08-.12-.15-.18-.23-.04-.03-.09-.06-.13-.09v-.09s-.09-.03-.13-.05q-.1-.09-.18-.18v-.09s-.09-.03-.13-.05q-.1-.09-.18-.18v-.09s-.09-.03-.13-.05c-.06-.08-.12-.15-.18-.23-.04-.03-.09-.06-.13-.09v-.09s-.09-.03-.13-.05q-.1-.09-.18-.18v-.09s-.09-.03-.13-.05q-.1-.09-.18-.18v-.09s-.09-.03-.13-.05v-.09s-.09-.03-.13-.05q-.1-.09-.18-.18v-.09s-.09-.03-.13-.05q-.1-.09-.18-.18v-.09s-.09-.03-.13-.05c-.06-.08-.12-.15-.18-.23-.04-.03-.09-.06-.13-.09v-.09s-.09-.03-.13-.05q-.1-.09-.18-.18v-.09s-.09-.03-.13-.05q-.1-.09-.18-.18v-.09s-.09-.03-.13-.05c-.06-.08-.12-.15-.18-.23-.04-.03-.09-.06-.13-.09v-.09s-.09-.03-.13-.05q-.1-.09-.18-.18v-.09s-.09-.03-.13-.05c-.06-.08-.12-.15-.18-.23-.04-.03-.09-.06-.13-.09v-.09s-.09-.03-.13-.05q-.1-.09-.18-.18v-.09s-.09-.03-.13-.05q-.1-.09-.18-.18v-.09s-.09-.03-.13-.05c-.06-.08-.12-.15-.18-.23-.04-.03-.09-.06-.13-.09v-.09s-.09-.03-.13-.05q-.1-.09-.18-.18v-.09s-.09-.03-.13-.05q-.1-.09-.18-.18v-.09s-.09-.03-.13-.05c-.06-.08-.12-.15-.18-.23-.04-.03-.09-.06-.13-.09v-.09s-.09-.03-.13-.05q-.1-.09-.18-.18v-.09s-.09-.03-.13-.05c-.06-.08-.12-.15-.18-.23-.04-.03-.09-.06-.13-.09v-.09s-.09-.03-.13-.05q-.1-.09-.18-.18v-.09s-.09-.03-.13-.05q-.1-.09-.18-.18v-.09s-.09-.03-.13-.05c-.06-.08-.12-.15-.18-.23-.04-.03-.09-.06-.13-.09v-.09s-.09-.03-.13-.05q-.1-.09-.18-.18v-.09s-.09-.03-.13-.05c-.06-.08-.12-.15-.18-.23-.04-.03-.09-.06-.13-.09v-.09s-.09-.03-.13-.05q-.1-.09-.18-.18v-.09s-.09-.03-.13-.05q-.1-.09-.18-.18v-.09s-.09-.03-.13-.05c-.06-.08-.12-.15-.18-.23-.04-.03-.09-.06-.13-.09v-.09s-.09-.03-.13-.05q-.1-.09-.18-.18v-.09s-.09-.03-.13-.05c-.06-.08-.12-.15-.18-.23-.09-.08-.18-.15-.27-.23q-.11-.1-.18-.18v-.09s-.09-.03-.13-.05q-.1-.09-.18-.18v-.09s-.09-.03-.13-.05c-.06-.08-.12-.15-.18-.23-.04-.03-.09-.06-.13-.09v-.09s-.09-.03-.13-.05q-.1-.09-.18-.18v-.09s-.09-.03-.13-.05q-.1-.09-.18-.18v-.09s-.09-.03-.13-.05c-.06-.08-.12-.15-.18-.23-.04-.03-.09-.06-.13-.09v-.09s-.09-.03-.13-.05q-.1-.09-.18-.18v-.09s-.09-.03-.13-.05c-.06-.08-.12-.15-.18-.23-.09-.08-.18-.15-.27-.23q-.11-.1-.18-.18v-.09s-.09-.03-.13-.05q-.1-.09-.18-.18v-.09s-.09-.03-.13-.05c-.06-.08-.12-.15-.18-.23-.04-.03-.09-.06-.13-.09v-.09s-.09-.03-.13-.05q-.1-.09-.18-.18v-.09s-.09-.03-.13-.05c-.06-.08-.12-.15-.18-.23-.09-.08-.18-.15-.27-.23q-.11-.1-.18-.18v-.09s-.09-.03-.13-.05q-.1-.09-.18-.18v-.09s-.09-.03-.13-.05c-.06-.08-.12-.15-.18-.23-.04-.03-.09-.06-.13-.09v-.09s-.09-.03-.13-.05q-.1-.09-.18-.18v-.09s-.09-.03-.13-.05q-.1-.09-.18-.18v-.09s-.09-.03-.13-.05c-.06-.08-.12-.15-.18-.23-.04-.03-.09-.06-.13-.09v-.09s-.09-.03-.13-.05q-.1-.09-.18-.18v-.09s-.09-.03-.13-.05c-.06-.08-.12-.15-.18-.23-.09-.08-.18-.15-.27-.23q-.11-.1-.18-.18v-.09s-.09-.03-.13-.05q-.1-.09-.18-.18v-.09s-.09-.03-.13-.05c-.06-.08-.12-.15-.18-.23-.04-.03-.09-.06-.13-.09v-.09s-.09-.03-.13-.05q-.1-.09-.18-.18v-.09s-.09-.03-.13-.05c-.06-.08-.12-.15-.18-.23-.09-.08-.18-.15-.27-.23q-.11-.1-.18-.18v-.09s-.09-.03-.13-.05q-.1-.09-.18-.18v-.09s-.09-.03-.13-.05c-.06-.08-.12-.15-.18-.23-.09-.08-.18-.15-.27-.23q-.11-.1-.18-.18v-.09s-.09-.03-.13-.05c-.06-.08-.12-.15-.18-.23-.09-.08-.18-.15-.27-.23q-.11-.1-.18-.18v-.09s-.09-.03-.13-.05q-.1-.09-.18-.18v-.09s-.09-.03-.13-.05c-.06-.08-.12-.15-.18-.23-.09-.08-.18-.15-.27-.23q-.11-.1-.18-.18v-.09s-.09-.03-.13-.05q-.1-.09-.18-.18v-.09s-.09-.03-.13-.05c-.06-.08-.12-.15-.18-.23-.04-.03-.09-.06-.13-.09v-.09s-.09-.03-.13-.05q-.1-.09-.18-.18v-.09s-.09-.03-.13-.05c-.06-.08-.12-.15-.18-.23-.09-.08-.18-.15-.27-.23q-.11-.1-.18-.18v-.09s-.09-.03-.13-.05q-.1-.09-.18-.18v-.09s-.09-.03-.13-.05c-.06-.08-.12-.15-.18-.23-.09-.08-.18-.15-.27-.23q-.11-.1-.18-.18v-.09s-.09-.03-.13-.05c-.06-.08-.12-.15-.18-.23-.09-.08-.18-.15-.27-.23q-.11-.1-.18-.18v-.09s-.09-.03-.13-.05q-.1-.09-.18-.18v-.09s-.09-.03-.13-.05c-.06-.08-.12-.15-.18-.23-.09-.08-.18-.15-.27-.23q-.11-.1-.18-.18v-.09s-.09-.03-.13-.05q-.04-.09-.04-.18s.06-.09.09-.13h.09s.03-.09.05-.13h.09s.03-.09.05-.13q.09-.1.18-.18h.09s.03-.09.05-.13q.09-.1.18-.18h.09s.03-.09.05-.13q.09-.1.18-.18h.09s.03-.09.05-.13h.09s.03-.09.05-.13q.09-.1.18-.18h.09s.03-.09.05-.13q.09-.1.18-.18h.09s.03-.09.05-.13h.09c.03-.06.06-.12.09-.18h.09s.03-.09.05-.13h.09s.03-.09.05-.13q.09-.1.18-.18h.09s.03-.09.05-.13q.09-.1.18-.18h.09s.03-.09.05-.13h.09s.03-.09.05-.13q.09-.1.18-.18h.09s.03-.09.05-.13q.09-.1.18-.18h.09s.03-.09.05-.13h.09c.03-.06.06-.12.09-.18h.09s.03-.09.05-.13h.09s.03-.09.05-.13q.09-.1.18-.18h.09s.03-.09.05-.13q.09-.1.18-.18h.09s.03-.09.05-.13h.09c.03-.06.06-.12.09-.18h.09s.03-.09.05-.13h.09s.03-.09.05-.13q.09-.1.18-.18h.09s.03-.09.05-.13q.09-.1.18-.18h.09s.03-.09.05-.13h.09s.03-.09.05-.13q.09-.1.18-.18h.09s.03-.09.05-.13q.09-.1.18-.18h.09s.03-.09.05-.13h.09c.03-.06.06-.12.09-.18h.09s.03-.09.05-.13h.09s.03-.09.05-.13q.09-.1.18-.18h.09s.03-.09.05-.13q.09-.1.18-.18h.09s.03-.09.05-.13h.09s.03-.09.05-.13q.09-.1.18-.18h.09s.03-.09.05-.13q.09-.1.18-.18h.09s.03-.09.05-.13h.09c.03-.06.06-.12.09-.18h.09s.03-.09.05-.13h.09s.03-.09.05-.13q.09-.1.18-.18h.09s.03-.09.05-.13q.09-.1.18-.18h.09s.03-.09.05-.13h.09c.03-.06.06-.12.09-.18h.09s.03-.09.05-.13h.09s.03-.09.05-.13q.09-.1.18-.18h.09s.03-.09.05-.13h.09c.03-.06.06-.12.09-.18h.09s.03-.09.05-.13h.09s.03-.09.05-.13q.09-.1.18-.18h.09s.03-.09.05-.13q.09-.1.18-.18h.09s.03-.09.05-.13h.09c.03-.06.06-.12.09-.18h.09s.03-.09.05-.13h.09s.03-.09.05-.13q.09-.1.18-.18h.09s.03-.09.05-.13q.09-.1.18-.18h.09s.03-.09.05-.13h.09c.03-.06.06-.12.09-.18h.09s.03-.09.05-.13h.09s.03-.09.05-.13q.09-.1.18-.18h.09s.03-.09.05-.13h.09c.03-.06.06-.12.09-.18h.09s.03-.09.05-.13h.09s.03-.09.05-.13ZM86.41,96.22c.17.21.35.41.54.61.03.03.05.05.08.08.09.09.18.18.26.27.06.07.13.13.19.2.18.18.35.36.53.54.19.2.38.39.58.59.38.39.76.78,1.14,1.17.29.3.59.6.88.91,2.26,2.32,4.52,4.65,6.78,6.97.03.03.05.05.08.08,1.2,1.23,2.4,2.46,3.6,3.7.51.52,1.01,1.04,1.52,1.56.08.09.17.17.25.26,1.3,1.34,2.61,2.68,3.91,4.02.03.03.06.06.08.09.45.46.9.93,1.35,1.39,1.3,1.34,2.6,2.68,3.9,4.01.03.03.05.05.08.08.59.6,1.18,1.21,1.77,1.81.24.24.47.49.71.73.03.03.05.05.08.08.83.85,1.67,1.71,2.5,2.57.84.86,1.68,1.73,2.52,2.59.12.12.23.24.35.36t.07.07c.36.37.72.74,1.08,1.11.35.37.71.73,1.06,1.09.19.19.38.39.57.58q1.03,1.09,2.44,1.45c.12,0,.24,0,.36,0,.28,0,.54.04.82.08.36.04.72.08,1.08.12.42.04.84.09,1.25.15.51.07,1.02.13,1.53.18.47.05.94.1,1.41.15.05,0,.1.01.15.02.26.03.52.07.78.1.37.05.74.09,1.11.13.2.02.39.04.59.07.04,0,.08,0,.12.01.42.05.84.09,1.26.14.04,0,.07,0,.11.01.5.06,1,.12,1.5.18.31.04.61.07.92.11q.06,0,.11.01c.19.02.37.04.56.06.33.04.65.08.98.12.47.06.94.12,1.42.17.1.01.21.02.31.04.15.02.3.03.45.05q.07,0,.14.02s.09,0,.13.01c.04,0,.07,0,.11.01.1,0,.18-.01.28-.04-.04-.02-.09-.03-.14-.05-.01-.04-.03-.09-.04-.14q-.08-.1-.18-.18h-.09s-.03-.09-.04-.14c-.07-.06-.15-.12-.22-.18-.03-.05-.06-.09-.09-.14h-.09s-.03-.09-.04-.14q-.08-.1-.18-.18h-.09s-.03-.09-.04-.14q-.08-.1-.18-.18h-.09s-.03-.09-.04-.14c-.07-.06-.15-.12-.22-.18-.03-.05-.06-.09-.09-.14h-.09s-.03-.09-.04-.14q-.08-.1-.18-.18h-.09s-.03-.09-.04-.14c-.07-.06-.15-.12-.22-.18-.08-.09-.15-.18-.22-.27q-.09-.11-.18-.18h-.09s-.03-.09-.04-.14q-.08-.1-.18-.18h-.09s-.03-.09-.04-.14c-.07-.06-.15-.12-.22-.18-.03-.05-.06-.09-.09-.14h-.09s-.03-.09-.04-.14q-.08-.1-.18-.18h-.09s-.03-.09-.04-.14q-.08-.1-.18-.18h-.09s-.03-.09-.04-.14c-.07-.06-.15-.12-.22-.18-.03-.05-.06-.09-.09-.14h-.09s-.03-.09-.04-.14q-.08-.1-.18-.18h-.09s-.03-.09-.04-.14c-.07-.06-.15-.12-.22-.18-.03-.05-.06-.09-.09-.14h-.09s-.03-.09-.04-.14q-.08-.1-.18-.18h-.09s-.03-.09-.04-.14q-.08-.1-.18-.18h-.09s-.03-.09-.04-.14c-.07-.06-.15-.12-.22-.18-.03-.05-.06-.09-.09-.14h-.09s-.03-.09-.04-.14q-.08-.1-.18-.18h-.09s-.03-.09-.04-.14q-.08-.1-.18-.18h-.09s-.03-.09-.04-.14c-.07-.06-.15-.12-.22-.18-.03-.05-.06-.09-.09-.14h-.09s-.03-.09-.04-.14q-.08-.1-.18-.18h-.09s-.03-.09-.04-.14c-.07-.06-.15-.12-.22-.18-.03-.05-.06-.09-.09-.14h-.09s-.03-.09-.04-.14q-.08-.1-.18-.18h-.09s-.03-.09-.04-.14q-.08-.1-.18-.18h-.09s-.03-.09-.04-.14c-.07-.06-.15-.12-.22-.18-.03-.05-.06-.09-.09-.14h-.09s-.03-.09-.04-.14q-.08-.1-.18-.18h-.09s-.03-.09-.04-.14c-.07-.06-.15-.12-.22-.18-.03-.05-.06-.09-.09-.14h-.09s-.03-.09-.04-.14q-.08-.1-.18-.18h-.09s-.03-.09-.04-.14q-.08-.1-.18-.18h-.09s-.03-.09-.04-.14c-.07-.06-.15-.12-.22-.18-.03-.05-.06-.09-.09-.14h-.09s-.03-.09-.04-.14q-.08-.1-.18-.18h-.09s-.03-.09-.04-.14q-.08-.1-.18-.18h-.09s-.03-.09-.04-.14h-.09s-.03-.09-.04-.14q-.08-.1-.18-.18h-.09s-.03-.09-.04-.14q-.08-.1-.18-.18h-.09s-.03-.09-.04-.14c-.07-.06-.15-.12-.22-.18-.03-.05-.06-.09-.09-.14h-.09s-.03-.09-.04-.14q-.08-.1-.18-.18h-.09s-.03-.09-.04-.14q-.08-.1-.18-.18h-.09s-.03-.09-.04-.14c-.07-.06-.15-.12-.22-.18-.03-.05-.06-.09-.09-.14h-.09s-.03-.09-.04-.14q-.08-.1-.18-.18h-.09s-.03-.09-.04-.14q-.08-.1-.18-.18h-.09s-.03-.09-.04-.14h-.09s-.03-.09-.04-.14q-.08-.1-.18-.18h-.09s-.03-.09-.04-.14q-.08-.1-.18-.18h-.09s-.03-.09-.04-.14c-.07-.06-.15-.12-.22-.18-.03-.05-.06-.09-.09-.14h-.09s-.03-.09-.04-.14q-.08-.1-.18-.18h-.09s-.03-.09-.04-.14q-.08-.1-.18-.18h-.09s-.03-.09-.04-.14h-.09s-.03-.09-.04-.14q-.08-.1-.18-.18h-.09s-.03-.09-.04-.14q-.08-.1-.18-.18h-.09s-.03-.09-.04-.14c-.07-.06-.15-.12-.22-.18-.03-.05-.06-.09-.09-.14h-.09s-.03-.09-.04-.14q-.08-.1-.18-.18h-.09s-.03-.09-.04-.14q-.08-.1-.18-.18h-.09s-.03-.09-.04-.14c-.07-.06-.15-.12-.22-.18-.03-.05-.06-.09-.09-.14h-.09s-.03-.09-.04-.14q-.08-.1-.18-.18h-.09s-.03-.09-.04-.14q-.08-.1-.18-.18h-.09s-.03-.09-.04-.14h-.09s-.03-.09-.04-.14q-.08-.1-.18-.18h-.09s-.03-.09-.04-.14q-.08-.1-.18-.18h-.09s-.03-.09-.04-.14c-.07-.06-.15-.12-.22-.18-.03-.05-.06-.09-.09-.14h-.09s-.03-.09-.04-.14q-.08-.1-.18-.18h-.09s-.03-.09-.04-.14q-.08-.1-.18-.18h-.09s-.03-.09-.04-.14h-.09s-.03-.09-.04-.14q-.08-.1-.18-.18h-.09s-.03-.09-.04-.14q-.08-.1-.18-.18h-.09s-.03-.09-.04-.14q-.08-.1-.18-.18h-.09s-.03-.09-.04-.14h-.09s-.03-.09-.04-.14q-.08-.1-.18-.18h-.09s-.03-.09-.04-.14q-.08-.1-.18-.18h-.09s-.03-.09-.04-.14c-.07-.06-.15-.12-.22-.18-.03-.05-.06-.09-.09-.14h-.09s-.03-.09-.04-.14q-.08-.1-.18-.18h-.09s-.03-.09-.04-.14q-.08-.1-.18-.18h-.09s-.03-.09-.04-.14h-.09s-.03-.09-.04-.14q-.08-.1-.18-.18h-.09s-.03-.09-.04-.14q-.08-.1-.18-.18h-.09s-.03-.09-.04-.14c-.07-.06-.15-.12-.22-.18-.03-.05-.06-.09-.09-.14h-.09s-.03-.09-.04-.14q-.08-.1-.18-.18h-.09s-.03-.09-.04-.14q-.08-.1-.18-.18h-.09s-.03-.09-.04-.14h-.09s-.03-.09-.04-.14q-.08-.1-.18-.18h-.09s-.03-.09-.04-.14q-.08-.1-.18-.18h-.09s-.03-.09-.04-.14q-.08-.1-.18-.18h-.09s-.03-.09-.04-.14h-.09s-.03-.09-.04-.14q-.08-.1-.18-.18h-.09s-.03-.09-.04-.14q-.08-.1-.18-.18h-.09s-.03-.09-.04-.14h-.09s-.03-.09-.04-.14q-.08-.1-.18-.18h-.09s-.03-.09-.04-.14q-.08-.1-.18-.18h-.09s-.03-.09-.04-.14q-.08-.1-.18-.18h-.09s-.03-.09-.04-.14h-.09s-.03-.09-.04-.14q-.08-.1-.18-.18h-.09s-.03-.09-.04-.14q-.08-.1-.18-.18h-.09s-.03-.09-.04-.14q-.08-.1-.18-.18h-.09s-.03-.09-.04-.14h-.09s-.03-.09-.04-.14q-.08-.1-.18-.18h-.09s-.03-.09-.04-.14q-.08-.1-.18-.18h-.09s-.03-.09-.04-.14h-.09s-.03-.09-.04-.14q-.08-.1-.18-.18h-.09s-.03-.09-.04-.14q-.08-.1-.18-.18h-.09s-.03-.09-.04-.14q-.08-.1-.18-.18h-.09s-.03-.09-.04-.14h-.09s-.03-.09-.04-.14q-.08-.1-.18-.18h-.09s-.03-.09-.04-.14q-.08-.1-.18-.18h-.09s-.03-.09-.04-.14h-.09c-.03-.06-.06-.12-.09-.18h-.09s-.03-.09-.04-.14h-.09s-.03-.09-.04-.14q-.08-.1-.18-.18h-.09s-.03-.09-.04-.14q-.08-.1-.18-.18h-.09s-.03-.09-.04-.14h-.09s-.03-.09-.04-.14q-.08-.1-.18-.18h-.09s-.03-.09-.04-.14q-.08-.1-.18-.18h-.09s-.03-.09-.04-.14q-.08-.1-.18-.18h-.09s-.03-.09-.04-.14h-.09s-.03-.09-.04-.14q-.08-.1-.18-.18h-.09s-.03-.09-.04-.14q-.08-.1-.18-.18h-.09s-.03-.09-.04-.14h-.09s-.03-.09-.04-.14q-.08-.1-.18-.18h-.09s-.03-.09-.04-.14q-.08-.1-.18-.18h-.09s-.03-.09-.04-.14q-.08-.1-.18-.18h-.09s-.03-.09-.04-.14h-.09s-.03-.09-.04-.14q-.08-.1-.18-.18h-.09s-.03-.09-.04-.14q-.08-.1-.18-.18h-.09s-.03-.09-.04-.14h-.09c-.03-.06-.06-.12-.09-.18h-.09s-.03-.09-.04-.14c-.16-.11-.28-.12-.47-.13-.03,0-.07,0-.1,0-.11,0-.21-.02-.32-.03-.14-.01-.27-.02-.41-.04q-.05,0-.11,0c-.27-.03-.55-.06-.82-.09-.39-.05-.78-.09-1.16-.13-.08,0-.16-.02-.24-.03-.42-.05-.85-.09-1.27-.14-.04,0-.08,0-.13-.01-.2-.02-.4-.04-.61-.06-.34-.04-.69-.07-1.03-.12-.39-.05-.79-.09-1.18-.14-.21-.02-.42-.04-.63-.07-.04,0-.08,0-.13-.01-.34-.04-.67-.07-1-.11-.53-.06-1.07-.12-1.6-.18-.77-.08-1.54-.17-2.31-.25-.29-.03-.58-.06-.87-.1-.04,0-.08,0-.11-.01-.44-.05-.89-.1-1.33-.15-.04,0-.08,0-.13-.01-.2-.02-.4-.04-.61-.06-.07,0-.15-.02-.22-.02-.04,0-.07,0-.11-.01-.18-.02-.36-.04-.54-.06-.04,0-.07,0-.11-.01-.07,0-.13-.02-.2-.03-.23-.03-.45-.04-.69-.04Z"/>
</svg>